<svg width="66" height="65" viewBox="0 0 66 65" fill="none" xmlns="http://www.w3.org/2000/svg">
<g clip-path="url(#clip0_548_313)">
<path d="M65.2107 32.3808C65.2107 50.2644 50.7136 64.7615 32.83 64.7615C14.9463 64.7615 0.449219 50.2644 0.449219 32.3808C0.449219 14.4971 14.9463 0 32.83 0C50.7136 0 65.2107 14.4971 65.2107 32.3808Z" fill="#4A7AFF"/>
<path d="M34.2517 64.7285C51.4758 63.9849 65.2115 49.7876 65.2115 32.3808C65.2115 32.2548 65.208 32.1293 65.2066 32.0033L42.7299 9.52612L18.6973 34.6457L32.0501 47.9985L25.8932 56.3699L34.2517 64.7285Z" fill="#0053BF"/>
<path d="M42.7284 9.52603V16.8583C42.7284 16.8583 34.3101 15.6365 34.3101 21.0675V26.4986H41.9136L40.9635 34.781H34.3101V56.3698H25.8918V34.781L18.6953 34.6451V26.4986H25.7559V20.2527C25.7559 20.2527 25.2899 10.9614 34.446 9.25477C38.248 8.54575 42.7284 9.52603 42.7284 9.52603Z" fill="white"/>
<path d="M42.7292 16.8583V9.52603C42.7292 9.52603 38.2488 8.54575 34.4468 9.25477C33.8529 9.36545 33.3005 9.50874 32.7852 9.67821V56.3698H34.3109V34.781H40.9638L41.9145 26.4986H34.3109C34.3109 26.4986 34.3109 26.4986 34.3109 21.0675C34.3109 15.6365 42.7292 16.8583 42.7292 16.8583Z" fill="#DCE1EB"/>
</g>
<defs>
<clipPath id="clip0_548_313">
<rect width="64.7615" height="64.7615" fill="white" transform="translate(0.449219)"/>
</clipPath>
</defs>
</svg>
