<svg width="66" height="65" viewBox="0 0 66 65" fill="none" xmlns="http://www.w3.org/2000/svg">
<g clip-path="url(#clip0_548_318)">
<path d="M32.8944 64.7615C15.0138 64.7615 0.513672 50.2614 0.513672 32.3808C0.513672 14.5001 15.0138 0 32.8944 0C50.7751 0 65.2752 14.5001 65.2752 32.3808C65.2752 50.2614 50.7751 64.7615 32.8944 64.7615Z" fill="url(#paint0_linear_548_318)"/>
<path d="M32.8947 14.2605C38.7945 14.2605 39.4939 14.28 41.8253 14.3901C43.9819 14.4872 45.1541 14.8499 45.9312 15.1543C46.9609 15.5558 47.6992 16.035 48.4699 16.8057C49.2405 17.5763 49.7198 18.3146 50.1213 19.3443C50.4257 20.1215 50.7819 21.2936 50.8855 23.4502C50.9891 25.7816 51.015 26.481 51.015 32.3808C51.015 38.2806 50.9956 38.98 50.8855 41.3114C50.7883 43.468 50.4257 44.6402 50.1213 45.4173C49.7198 46.447 49.2405 47.1853 48.4699 47.956C47.6992 48.7266 46.9609 49.2059 45.9312 49.6074C45.1541 49.9118 43.9819 50.2679 41.8253 50.3716C39.4939 50.4752 38.7945 50.5011 32.8947 50.5011C26.995 50.5011 26.2955 50.4817 23.9641 50.3716C21.8076 50.2744 20.6354 49.9118 19.8582 49.6074C18.8285 49.2059 18.0903 48.7266 17.3196 47.956C16.5489 47.1853 16.0697 46.447 15.6682 45.4173C15.3638 44.6402 15.0076 43.468 14.904 41.3114C14.8004 38.98 14.7745 38.2806 14.7745 32.3808C14.7745 26.481 14.7939 25.7816 14.904 23.4502C15.0011 21.2936 15.3638 20.1215 15.6682 19.3443C16.0697 18.3146 16.5489 17.5763 17.3196 16.8057C18.0903 16.035 18.8285 15.5558 19.8582 15.1543C20.6354 14.8499 21.8076 14.4937 23.9641 14.3901C26.2955 14.28 26.995 14.2605 32.8947 14.2605ZM32.8947 10.2777C26.8913 10.2777 26.1401 10.3036 23.7828 10.4137C21.4319 10.5238 19.8259 10.8929 18.4141 11.4434C16.9634 12.0004 15.7265 12.7581 14.5025 13.9885C13.272 15.219 12.5208 16.4495 11.9509 17.9066C11.4069 19.3119 11.0312 20.918 10.9212 23.2753C10.8111 25.6327 10.7852 26.3839 10.7852 32.3873C10.7852 38.3907 10.8111 39.1419 10.9212 41.4992C11.0312 43.8501 11.4004 45.4562 11.9509 46.868C12.5143 48.3121 13.272 49.5491 14.5025 50.7731C15.7329 52.0036 16.9634 52.7548 18.4205 53.3247C19.8259 53.8687 21.4319 54.2443 23.7893 54.3544C26.1466 54.4645 26.8978 54.4904 32.9012 54.4904C38.9046 54.4904 39.6558 54.4645 42.0132 54.3544C44.364 54.2443 45.9701 53.8752 47.3819 53.3247C48.8261 52.7613 50.063 52.0036 51.287 50.7731C52.5175 49.5426 53.2687 48.3121 53.8386 46.855C54.3826 45.4497 54.7582 43.8436 54.8683 41.4863C54.9784 39.129 55.0043 38.3777 55.0043 32.3743C55.0043 26.3709 54.9784 25.6197 54.8683 23.2624C54.7582 20.9116 54.3891 19.3055 53.8386 17.8937C53.2752 16.4495 52.5175 15.2125 51.287 13.9885C50.0565 12.7581 48.8261 12.0068 47.3689 11.4369C45.9636 10.8929 44.3575 10.5173 42.0002 10.4072C39.6494 10.3036 38.8981 10.2777 32.8947 10.2777Z" fill="white"/>
<path d="M32.8957 21.0281C26.6267 21.0281 21.543 26.1119 21.543 32.3808C21.543 38.6497 26.6267 43.7335 32.8957 43.7335C39.1646 43.7335 44.2484 38.6497 44.2484 32.3808C44.2484 26.1119 39.1646 21.0281 32.8957 21.0281ZM32.8957 39.7506C28.8286 39.7506 25.5258 36.4543 25.5258 32.3808C25.5258 28.3073 28.8286 25.0109 32.8957 25.0109C36.9627 25.0109 40.2655 28.3073 40.2655 32.3808C40.2655 36.4543 36.9627 39.7506 32.8957 39.7506Z" fill="white"/>
<path d="M44.6943 23.2365C46.1607 23.2365 47.3495 22.0477 47.3495 20.5812C47.3495 19.1148 46.1607 17.926 44.6943 17.926C43.2278 17.926 42.0391 19.1148 42.0391 20.5812C42.0391 22.0477 43.2278 23.2365 44.6943 23.2365Z" fill="white"/>
</g>
<defs>
<linearGradient id="paint0_linear_548_318" x1="9.9978" y1="55.2775" x2="55.7911" y2="9.48413" gradientUnits="userSpaceOnUse">
<stop stop-color="#FFD521"/>
<stop offset="0.0551048" stop-color="#FFD020"/>
<stop offset="0.1241" stop-color="#FEC01E"/>
<stop offset="0.2004" stop-color="#FCA71B"/>
<stop offset="0.2821" stop-color="#FA8316"/>
<stop offset="0.3681" stop-color="#F85510"/>
<stop offset="0.4563" stop-color="#F51E09"/>
<stop offset="0.5" stop-color="#F30005"/>
<stop offset="0.5035" stop-color="#F20007"/>
<stop offset="0.5966" stop-color="#E1003B"/>
<stop offset="0.6879" stop-color="#D30067"/>
<stop offset="0.7757" stop-color="#C70088"/>
<stop offset="0.8589" stop-color="#BF00A0"/>
<stop offset="0.9357" stop-color="#BB00AF"/>
<stop offset="1" stop-color="#B900B4"/>
</linearGradient>
<clipPath id="clip0_548_318">
<rect width="64.7615" height="64.7615" fill="white" transform="translate(0.513672)"/>
</clipPath>
</defs>
</svg>
