<svg id="Capa_1" enable-background="new 0 0 512.003 512.003" height="300" viewBox="0 0 512.003 512.003" width="300" xmlns="http://www.w3.org/2000/svg" version="1.1" xmlns:xlink="http://www.w3.org/1999/xlink" xmlns:svgjs="http://svgjs.dev/svgjs"><g width="100%" height="100%" transform="matrix(1,0,0,1,0,0)"><g><path d="m328.001 121.003h-144c-12.682 0-23 10.317-23 23s10.318 23 23 23h144c12.682 0 23-10.317 23-23s-10.318-23-23-23z" fill="#1e6fff" fill-opacity="1" data-original-color="#000000ff" stroke="none" stroke-opacity="1"/><path d="m345.601 91.003c8.76-17.21 13.4-36.38 13.4-56.25v-19.75c0-5.57-3.09-10.68-8.02-13.28-4.93-2.59-10.89-2.24-15.48.92l-38.68 26.59-31.27-25.8c-5.55-4.57-13.55-4.57-19.1 0l-31.27 25.8-38.68-26.59c-4.59-3.16-10.55-3.51-15.48-.92-4.93 2.6-8.02 7.71-8.02 13.28v19.75c0 19.87 4.64 39.04 13.4 56.25z" fill="#1e6fff" fill-opacity="1" data-original-color="#000000ff" stroke="none" stroke-opacity="1"/><path d="m503.541 66.503-.25-.12c-17.17-8.32-30.41-23.5-36.33-41.63l-4.7-14.41c-2.02-6.17-7.77-10.34-14.26-10.34s-12.24 4.17-14.26 10.34l-4.89 14.99c-5.82 17.83-18.78 32.87-35.56 41.25-5.08 2.54-8.29 7.74-8.29 13.42s3.21 10.88 8.29 13.42l.28.13c16.87 8.44 29.45 22.94 35.42 40.84l4.78 14.35c2.04 6.13 7.77 10.26 14.23 10.26s12.19-4.13 14.23-10.26l4.59-13.771c5.98-17.94 19.17-32.96 36.2-41.22l.53-.26c5.17-2.51 8.45-7.75 8.45-13.5 0-5.739-3.29-10.979-8.46-13.489z" fill="#1e6fff" fill-opacity="1" data-original-color="#000000ff" stroke="none" stroke-opacity="1"/><path d="m78.231 244.747 4.687-14.06c6.028-18.086 18.739-32.741 35.792-41.269 5.082-2.541 8.292-7.734 8.292-13.416s-3.21-10.875-8.292-13.416c-17.052-8.527-29.764-23.183-35.792-41.27l-4.687-14.059c-2.042-6.125-7.773-10.256-14.23-10.256s-12.188 4.132-14.23 10.257l-4.491 13.472c-6.044 18.133-19.374 33.314-36.557 41.646l-.25.121c-5.18 2.505-8.471 7.751-8.471 13.505s3.291 11 8.471 13.505l.235.113c17.198 8.339 30.528 23.521 36.573 41.653l4.491 13.472c2.042 6.125 7.773 10.257 14.23 10.257 6.455.001 12.188-4.131 14.229-10.255z" fill="#1e6fff" fill-opacity="1" data-original-color="#000000ff" stroke="none" stroke-opacity="1"/><path d="m344.361 197.003h-176.72l-62.56 66.46c-25.85 27.47-40.08 63.36-40.08 101.07 0 81.32 66.15 147.47 147.47 147.47h87.06c81.32 0 147.47-66.15 147.47-147.47 0-37.71-14.23-73.6-40.08-101.07zm-44.63 185.43c-2.73 16.25-13.998 29.167-28.776 34.489-.477 7.854-6.98 14.081-14.954 14.081-7.383 0-13.507-5.339-14.754-12.364-7.005-1.192-13.374-3.775-21.446-9.056-6.93-4.54-8.88-13.83-4.34-20.76 4.53-6.94 13.83-8.88 20.76-4.35 7.31 4.79 9.68 5.16 19.68 5.09 9.65-.06 13.49-7.64 14.24-12.1.68-4.01-.08-9.34-7.51-11.97-12.46-4.4-25.23-9.45-34.28-16.55-9.62-7.55-14.05-20.5-11.54-33.79 2.578-13.662 11.827-24.655 24.337-29.14.976-7.341 7.245-13.01 14.853-13.01 8.139 0 14.748 6.486 14.978 14.57 3.264 1.203 6.385 2.616 9.262 4.115 8.644 4.502 10.646 15.988 4.043 23.156-4.658 5.057-12.205 6.277-18.168 2.854-4.677-2.684-10.212-4.874-14.525-3.575-3.99 1.2-5.07 5.34-5.3 6.59-.49 2.59.21 4.33.58 4.62 5.66 4.44 16.19 8.5 25.75 11.88 19.6 6.919 30.49 25.1 27.11 45.22z" fill="#1e6fff" fill-opacity="1" data-original-color="#000000ff" stroke="none" stroke-opacity="1"/></g></g></svg>