<svg width="67" height="64" viewBox="0 0 67 64" fill="none" xmlns="http://www.w3.org/2000/svg">
<g clip-path="url(#clip0_548_324)">
<path d="M33.3624 0C51.6686 0 66.5138 14.2836 66.5138 31.8973C66.5138 49.5109 51.6686 63.7945 33.3624 63.7945C15.0562 63.7945 0.210938 49.5109 0.210938 31.8973C0.210938 14.2836 15.0562 0 33.3624 0Z" fill="#1DA1F2"/>
<path d="M25.6715 48.1011C41.3057 48.1011 49.8654 35.6357 49.8654 24.8225C49.8654 24.4716 49.8654 24.1144 49.8389 23.7635C51.5031 22.6025 52.9419 21.1735 54.0823 19.5276C52.5308 20.191 50.8865 20.6248 49.2024 20.8162C50.9793 19.7955 52.3054 18.1879 52.9419 16.2932C51.2711 17.2437 49.4477 17.9199 47.5448 18.2772C44.3225 14.9854 38.9387 14.8259 35.5175 17.9199C33.3096 19.9167 32.3747 22.8959 33.0577 25.7348C26.2218 25.403 19.8501 22.2962 15.5338 17.1863C13.2795 20.9247 14.4265 25.7029 18.166 28.1079C16.8134 28.0696 15.4874 27.7188 14.3072 27.0872V27.1893C14.3072 31.0807 17.1582 34.4363 21.1298 35.2083C19.8766 35.5336 18.5638 35.5846 17.2908 35.3486C18.4047 38.6787 21.5939 40.9625 25.2339 41.0327C22.2238 43.3102 18.5042 44.5478 14.6785 44.5414C14.0022 44.5414 13.3259 44.5031 12.6562 44.4202C16.5283 46.8252 21.0568 48.1011 25.6715 48.0947" fill="white"/>
</g>
<defs>
<clipPath id="clip0_548_324">
<rect width="66.3029" height="63.7945" fill="white" transform="translate(0.210938)"/>
</clipPath>
</defs>
</svg>
