<svg width="66" height="65" viewBox="0 0 66 65" fill="none" xmlns="http://www.w3.org/2000/svg">
<g clip-path="url(#clip0_548_304)">
<path d="M33.0683 64.7615C50.9517 64.7615 65.449 50.2642 65.449 32.3808C65.449 14.4974 50.9517 0 33.0683 0C15.1849 0 0.6875 14.4974 0.6875 32.3808C0.6875 50.2642 15.1849 64.7615 33.0683 64.7615Z" fill="#FF0000"/>
<path d="M37.5576 32.3935L28.5762 37.6043V27.1572L37.5576 32.3935Z" fill="url(#paint0_linear_548_304)"/>
<path d="M64.8308 38.695C63.5815 44.9644 60.5062 50.7243 55.9916 55.2502C51.4771 59.7761 45.7249 62.866 39.4587 64.131L18.5391 43.2113C19.6673 44.0909 21.0581 44.5664 22.4887 44.5619H43.681C45.3885 44.5574 47.0244 43.8757 48.2298 42.6663C49.4351 41.4569 50.1114 39.8188 50.1103 38.1113V26.6502C50.1154 24.9724 49.464 23.3591 48.2953 22.1553L64.8308 38.695Z" fill="url(#paint1_linear_548_304)"/>
<path d="M43.6641 20.1996H22.4717C21.6248 20.1996 20.7862 20.3665 20.0038 20.6907C19.2214 21.0149 18.5106 21.4901 17.912 22.0892C17.3133 22.6882 16.8386 23.3994 16.5149 24.182C16.1912 24.9646 16.0248 25.8033 16.0254 26.6502V38.1113C16.0248 38.9582 16.1912 39.7969 16.5149 40.5795C16.8386 41.3621 17.3133 42.0732 17.912 42.6723C18.5106 43.2713 19.2214 43.7465 20.0038 44.0707C20.7862 44.395 21.6248 44.5618 22.4717 44.5618H43.6641C44.511 44.5618 45.3496 44.395 46.132 44.0707C46.9143 43.7465 47.6252 43.2713 48.2238 42.6723C48.8225 42.0732 49.2972 41.3621 49.6209 40.5795C49.9446 39.7969 50.111 38.9582 50.1104 38.1113V26.6502C50.111 25.8033 49.9446 24.9646 49.6209 24.182C49.2972 23.3994 48.8225 22.6882 48.2238 22.0892C47.6252 21.4901 46.9143 21.0149 46.132 20.6907C45.3496 20.3665 44.511 20.1996 43.6641 20.1996ZM28.5772 37.6042V27.1572L37.5586 32.3807L28.5772 37.6042Z" fill="white"/>
</g>
<defs>
<linearGradient id="paint0_linear_548_304" x1="26.9017" y1="28.8317" x2="34.0085" y2="35.9426" gradientUnits="userSpaceOnUse">
<stop stop-color="#B71C1C"/>
<stop offset="1" stop-color="#B71C1C" stop-opacity="0"/>
</linearGradient>
<linearGradient id="paint1_linear_548_304" x1="31.2272" y1="30.5061" x2="55.9814" y2="55.2561" gradientUnits="userSpaceOnUse">
<stop stop-color="#B71C1C"/>
<stop offset="1" stop-color="#B71C1C" stop-opacity="0"/>
</linearGradient>
<clipPath id="clip0_548_304">
<rect width="64.7615" height="64.7615" fill="white" transform="translate(0.6875)"/>
</clipPath>
</defs>
</svg>
