<svg width="32" height="32" viewBox="0 0 32 32" fill="none" xmlns="http://www.w3.org/2000/svg">
<g opacity="0.5">
<path d="M9.33268 13.3332V29.3332M19.9993 7.83984L18.666 13.3332H26.4393C26.8533 13.3332 27.2616 13.4296 27.6319 13.6147C28.0022 13.7998 28.3243 14.0686 28.5727 14.3998C28.8211 14.731 28.9889 15.1155 29.063 15.5228C29.1371 15.9301 29.1153 16.3491 28.9993 16.7465L25.8927 27.4132C25.7311 27.9671 25.3943 28.4536 24.9327 28.7998C24.4711 29.146 23.9097 29.3332 23.3327 29.3332H5.33268C4.62544 29.3332 3.94716 29.0522 3.44706 28.5521C2.94697 28.052 2.66602 27.3737 2.66602 26.6665V15.9998C2.66602 15.2926 2.94697 14.6143 3.44706 14.1142C3.94716 13.6141 4.62544 13.3332 5.33268 13.3332H9.01268C9.50879 13.3329 9.995 13.1943 10.4166 12.9328C10.8382 12.6713 11.1786 12.2975 11.3993 11.8532L15.9993 2.6665C16.6281 2.67429 17.247 2.82406 17.8098 3.10463C18.3725 3.3852 18.8646 3.78931 19.2492 4.28677C19.6339 4.78424 19.9011 5.36218 20.031 5.97744C20.1609 6.5927 20.1501 7.22935 19.9993 7.83984Z" stroke="black" stroke-width="2" stroke-linecap="round" stroke-linejoin="round"/>
</g>
</svg>
