<svg width="32" height="32" viewBox="0 0 32 32" fill="none" xmlns="http://www.w3.org/2000/svg">
<g opacity="0.5">
<path d="M9.33268 28H22.666M20.0434 12.5867C20.1743 12.6624 20.283 12.7713 20.3586 12.9024C20.4342 13.0334 20.4739 13.182 20.4739 13.3333C20.4739 13.4846 20.4342 13.6332 20.3586 13.7643C20.283 13.8954 20.1743 14.0042 20.0434 14.08L14.6233 17.216C14.4925 17.2917 14.3439 17.3316 14.1927 17.3316C14.0415 17.3316 13.8929 17.2917 13.762 17.216C13.6311 17.1403 13.5225 17.0314 13.4471 16.9003C13.3718 16.7692 13.3323 16.6206 13.3327 16.4693V10.1973C13.3324 10.0463 13.3719 9.89788 13.4472 9.76697C13.5226 9.63607 13.631 9.5273 13.7617 9.45162C13.8924 9.37593 14.0407 9.336 14.1917 9.33583C14.3428 9.33567 14.4912 9.37527 14.622 9.45067L20.0434 12.5867ZM5.33268 4H26.666C28.1388 4 29.3327 5.19391 29.3327 6.66667V20C29.3327 21.4728 28.1388 22.6667 26.666 22.6667H5.33268C3.85992 22.6667 2.66602 21.4728 2.66602 20V6.66667C2.66602 5.19391 3.85992 4 5.33268 4Z" stroke="black" stroke-width="2" stroke-linecap="round" stroke-linejoin="round"/>
</g>
</svg>
