<svg width="48" height="48" viewBox="0 0 48 48" fill="none" xmlns="http://www.w3.org/2000/svg">
<rect width="48" height="48" rx="16" fill="url(#paint0_linear_899_923)"/>
<g clip-path="url(#clip0_899_923)">
<path d="M36.4033 18.3155L32.2367 13.3156C32.1575 13.221 32.0404 13.166 31.9167 13.166H16.0835C15.9598 13.166 15.8427 13.2206 15.7635 13.3156L11.5969 18.3155C11.4932 18.4397 11.4706 18.6126 11.5394 18.7588C11.6081 18.905 11.7552 18.9988 11.9169 18.9988H36.0832C36.2449 18.9988 36.3919 18.905 36.4607 18.7588C36.5291 18.613 36.507 18.4401 36.4033 18.3155ZM12.8065 18.1655L16.2785 13.9989H31.7212L35.1933 18.1655H12.8065Z" fill="white"/>
<path d="M24.3864 13.4231C24.3218 13.2673 24.1697 13.166 24.0014 13.166H16.0848C15.9356 13.166 15.7981 13.2456 15.7236 13.3752C15.649 13.5048 15.6494 13.6635 15.7249 13.7927L18.6415 18.7926C18.7065 18.9038 18.8194 18.9793 18.9477 18.9959C18.9656 18.998 18.9836 18.9992 19.001 18.9992C19.111 18.9992 19.2173 18.9559 19.296 18.8772L24.296 13.8772C24.4151 13.7581 24.451 13.5789 24.3864 13.4231ZM19.0885 17.9059L16.8098 13.9994H22.9951L19.0885 17.9059Z" fill="white"/>
<path d="M36.456 18.3981C36.386 18.256 36.2411 18.166 36.0827 18.166H11.9164C11.758 18.166 11.6135 18.256 11.543 18.3981C11.473 18.5402 11.4893 18.7098 11.5855 18.8356L23.6687 34.6687C23.7475 34.772 23.87 34.8329 24 34.8329C24.1299 34.8329 24.2524 34.772 24.3304 34.6687L36.4136 18.8356C36.5098 18.7098 36.526 18.5402 36.456 18.3981ZM24 33.7296L12.7589 18.9998H35.2411L24 33.7296Z" fill="white"/>
<path d="M24.3971 34.2904L19.3971 18.4573C19.3422 18.2839 19.1817 18.166 18.9996 18.166H11.9164C11.758 18.166 11.6135 18.256 11.543 18.3981C11.473 18.5402 11.4893 18.7098 11.5855 18.8356L23.6687 34.6687C23.7495 34.775 23.8733 34.8329 24 34.8329C24.0649 34.8329 24.1308 34.8179 24.1916 34.7854C24.3712 34.6925 24.4579 34.4833 24.3971 34.2904ZM12.7585 18.9998H18.6942L22.8842 32.268L12.7585 18.9998Z" fill="white"/>
<path d="M32.2766 13.3752C32.2024 13.2456 32.0645 13.166 31.9154 13.166H23.9988C23.8305 13.166 23.6784 13.2673 23.6138 13.4231C23.5492 13.5789 23.585 13.7581 23.7042 13.8772L28.7041 18.8772C28.7825 18.9559 28.8887 18.9992 28.9987 18.9992C29.0166 18.9992 29.0346 18.998 29.0525 18.9959C29.1804 18.9793 29.2937 18.9043 29.3587 18.7926L32.2753 13.7927C32.3503 13.6635 32.3508 13.5048 32.2766 13.3752ZM28.9112 17.9059L25.0046 13.9994H31.1899L28.9112 17.9059Z" fill="white"/>
<path d="M36.4554 18.3981C36.3854 18.256 36.2404 18.166 36.082 18.166H28.9988C28.8167 18.166 28.6559 18.2839 28.6013 18.4573L23.6014 34.2904C23.5405 34.4829 23.6272 34.6921 23.8068 34.7854C23.8676 34.8171 23.9334 34.8321 23.9984 34.8321C24.1247 34.8321 24.2484 34.7742 24.3297 34.6688L36.4129 18.8356C36.5091 18.7097 36.5254 18.5401 36.4554 18.3981ZM25.1139 32.267L29.3038 18.9989H35.2396L25.1139 32.267Z" fill="white"/>
</g>
<defs>
<linearGradient id="paint0_linear_899_923" x1="0" y1="24" x2="48" y2="24" gradientUnits="userSpaceOnUse">
<stop stop-color="#FACC15"/>
<stop offset="1" stop-color="#F97316"/>
</linearGradient>
<clipPath id="clip0_899_923">
<rect width="25" height="25" fill="white" transform="translate(11.5 11.5)"/>
</clipPath>
</defs>
</svg>
