<svg width="15" height="14" viewBox="0 0 15 14" fill="none" xmlns="http://www.w3.org/2000/svg">
<g clip-path="url(#clip0_168_1555)">
<path fill-rule="evenodd" clip-rule="evenodd" d="M7.29435 7.89954L7.20452 9.18725L7.50027 9.18754C9.99985 9.18754 11.6708 9.12133 12.6336 9.06562C13.4348 9.01954 14.1106 8.44233 14.2071 7.61312C14.283 6.96271 14.3547 5.99467 14.3547 4.66671C14.3547 3.33875 14.2827 2.371 14.2071 1.72029C14.1109 0.891082 13.4348 0.313874 12.6336 0.267791C11.6708 0.212082 9.99985 0.145874 7.50027 0.145874C6.82846 0.146068 6.21548 0.150346 5.66131 0.158707C6.0472 0.410435 6.36414 0.754508 6.5834 1.15972C6.80266 1.56494 6.91731 2.01847 6.91693 2.47921C6.91693 3.01879 6.76235 3.52279 6.49548 3.94892C7.30339 3.9635 8.10694 3.99354 8.88248 4.03787C9.34593 4.06442 10.0381 4.35025 10.2081 5.12754C10.281 5.45917 10.3038 5.89317 10.2049 6.43421C10.0728 7.15608 9.47689 7.60292 8.87285 7.68487L7.29435 7.89954ZM4.1461 4.37504C3.6433 4.37504 3.16108 4.1753 2.80554 3.81976C2.45001 3.46423 2.25027 2.98201 2.25027 2.47921C2.25027 1.9764 2.45001 1.49419 2.80554 1.13865C3.16108 0.783113 3.6433 0.583374 4.1461 0.583374C4.64891 0.583374 5.13112 0.783113 5.48666 1.13865C5.8422 1.49419 6.04193 1.9764 6.04193 2.47921C6.04193 2.98201 5.8422 3.46423 5.48666 3.81976C5.13112 4.1753 4.64891 4.37504 4.1461 4.37504ZM8.8326 4.91171C6.7361 4.79125 4.43223 4.78046 2.39785 4.87962C1.82123 4.90733 1.33502 5.31946 1.23614 5.89346C1.11743 6.58208 0.973935 7.62275 0.943601 8.7585C0.935143 9.07875 1.14923 9.36604 1.48114 9.41096C1.61152 9.42875 1.77427 9.44654 1.97348 9.46171C2.05223 9.46754 2.11173 9.53054 2.11464 9.60492L2.22431 12.5656C2.2421 13.0425 2.59064 13.4508 3.07627 13.5019C3.1628 13.511 3.25448 13.5196 3.35131 13.5275C3.59893 13.548 3.80631 13.3552 3.81593 13.1119L3.91656 10.4945C3.91799 10.4568 3.93399 10.4211 3.96118 10.3949C3.98838 10.3688 4.02466 10.3542 4.06239 10.3542H4.2301C4.26779 10.3542 4.30403 10.3687 4.33121 10.3948C4.3584 10.4209 4.37443 10.4565 4.37593 10.4942L4.47656 13.1163C4.47853 13.1743 4.49218 13.2313 4.5167 13.284C4.54122 13.3366 4.57611 13.3837 4.61926 13.4226C4.66242 13.4614 4.71297 13.4911 4.76788 13.5099C4.8228 13.5288 4.88095 13.5364 4.93885 13.5322C5.04444 13.5238 5.1437 13.5151 5.23664 13.506C5.71118 13.4575 6.05681 13.0664 6.08919 12.6021L6.46252 7.24708C6.46484 7.21359 6.47864 7.18193 6.50159 7.15743C6.52455 7.13294 6.55525 7.11711 6.58852 7.11262L8.75502 6.81804C9.03852 6.77954 9.28964 6.57508 9.34418 6.277C9.42381 5.84242 9.39989 5.52596 9.35352 5.3145C9.29606 5.05142 9.05602 4.92454 8.8326 4.91171Z" fill="#ACACAC"/>
</g>
<defs>
<clipPath id="clip0_168_1555">
<rect width="14" height="14" fill="white" transform="translate(0.5)"/>
</clipPath>
</defs>
</svg>
