<svg width="76" height="76" viewBox="0 0 76 76" fill="none" xmlns="http://www.w3.org/2000/svg">
<rect x="0.5" y="0.5" width="75" height="75" rx="18.5" fill="#044989" stroke="#2974B9"/>
<path d="M38 60.5C50.4264 60.5 60.5 50.4264 60.5 38C60.5 25.5736 50.4264 15.5 38 15.5C25.5736 15.5 15.5 25.5736 15.5 38C15.5 50.4264 25.5736 60.5 38 60.5Z" stroke="#2974B9" stroke-width="2" stroke-linecap="round" stroke-linejoin="round"/>
<path d="M38 51.5C45.4558 51.5 51.5 45.4558 51.5 38C51.5 30.5442 45.4558 24.5 38 24.5C30.5442 24.5 24.5 30.5442 24.5 38C24.5 45.4558 30.5442 51.5 38 51.5Z" stroke="#2974B9" stroke-width="2" stroke-linecap="round" stroke-linejoin="round"/>
<path d="M38 42.5C40.4853 42.5 42.5 40.4853 42.5 38C42.5 35.5147 40.4853 33.5 38 33.5C35.5147 33.5 33.5 35.5147 33.5 38C33.5 40.4853 35.5147 42.5 38 42.5Z" stroke="#2974B9" stroke-width="2" stroke-linecap="round" stroke-linejoin="round"/>
</svg>
