<svg width="45" height="44" viewBox="0 0 45 44" fill="none" xmlns="http://www.w3.org/2000/svg">
<g clip-path="url(#clip0_44_568)">
<path d="M44.1488 21.707C44.1488 33.6955 34.4304 43.4139 22.4418 43.4139C10.4532 43.4139 0.734863 33.6955 0.734863 21.707C0.734863 9.71839 10.4532 0 22.4418 0C34.4304 0 44.1488 9.71839 44.1488 21.707Z" fill="#4A7AFF"/>
<path d="M23.3945 43.3915C34.9409 42.893 44.1489 33.3757 44.1489 21.7067C44.1489 21.6223 44.1465 21.5382 44.1455 21.4537L29.0779 6.38574L12.9673 23.2251L21.9186 32.1763L17.7912 37.7882L23.3945 43.3915Z" fill="#0053BF"/>
<path d="M29.0778 6.38568V11.301C29.0778 11.301 23.4344 10.4819 23.4344 14.1227V17.7635H28.5316L27.8946 23.3158H23.4344V37.7882H17.791V23.3158L12.9668 23.2247V17.7635H17.7V13.5765C17.7 13.5765 17.3876 7.34788 23.5255 6.20384C26.0742 5.72854 29.0778 6.38568 29.0778 6.38568Z" fill="white"/>
<path d="M29.0778 11.301V6.38568C29.0778 6.38568 26.0743 5.72854 23.5255 6.20384C23.1274 6.27804 22.7571 6.37409 22.4116 6.4877V37.7882H23.4344V23.3158H27.8943L28.5316 17.7635H23.4344C23.4344 17.7635 23.4344 17.7635 23.4344 14.1227C23.4344 10.4819 29.0778 11.301 29.0778 11.301Z" fill="#DCE1EB"/>
</g>
<defs>
<clipPath id="clip0_44_568">
<rect width="43.4139" height="43.4139" fill="white" transform="translate(0.734863)"/>
</clipPath>
</defs>
</svg>
