<svg width="44" height="44" viewBox="0 0 44 44" fill="none" xmlns="http://www.w3.org/2000/svg">
<g clip-path="url(#clip0_44_573)">
<path d="M22.1777 43.4139C10.1911 43.4139 0.470703 33.6936 0.470703 21.707C0.470703 9.72038 10.1911 0 22.1777 0C34.1643 0 43.8846 9.72038 43.8846 21.707C43.8846 33.6936 34.1643 43.4139 22.1777 43.4139Z" fill="url(#paint0_linear_44_573)"/>
<path d="M22.1775 9.55961C26.1325 9.55961 26.6014 9.57263 28.1643 9.64643C29.6099 9.71155 30.3957 9.95467 30.9167 10.1587C31.607 10.4279 32.1019 10.7491 32.6185 11.2658C33.1351 11.7824 33.4564 12.2773 33.7256 12.9676C33.9296 13.4886 34.1684 14.2744 34.2379 15.72C34.3073 17.2829 34.3247 17.7518 34.3247 21.7068C34.3247 25.6618 34.3117 26.1307 34.2379 27.6936C34.1727 29.1393 33.9296 29.9251 33.7256 30.446C33.4564 31.1363 33.1351 31.6312 32.6185 32.1479C32.1019 32.6645 31.607 32.9858 30.9167 33.2549C30.3957 33.459 29.6099 33.6978 28.1643 33.7672C26.6014 33.8367 26.1325 33.854 22.1775 33.854C18.2225 33.854 17.7536 33.841 16.1907 33.7672C14.745 33.7021 13.9592 33.459 13.4382 33.2549C12.748 32.9858 12.253 32.6645 11.7364 32.1479C11.2198 31.6312 10.8985 31.1363 10.6294 30.446C10.4253 29.9251 10.1865 29.1393 10.1171 27.6936C10.0476 26.1307 10.0303 25.6618 10.0303 21.7068C10.0303 17.7518 10.0433 17.2829 10.1171 15.72C10.1822 14.2744 10.4253 13.4886 10.6294 12.9676C10.8985 12.2773 11.2198 11.7824 11.7364 11.2658C12.253 10.7491 12.748 10.4279 13.4382 10.1587C13.9592 9.95467 14.745 9.7159 16.1907 9.64643C17.7536 9.57263 18.2225 9.55961 22.1775 9.55961ZM22.1775 6.88965C18.153 6.88965 17.6494 6.90701 16.0691 6.98082C14.4932 7.05462 13.4165 7.30208 12.4701 7.6711C11.4976 8.04446 10.6684 8.5524 9.84792 9.37727C9.02305 10.2021 8.51945 11.027 8.13741 12.0038C7.77273 12.9459 7.52093 14.0226 7.44713 15.6028C7.37332 17.1831 7.35596 17.6867 7.35596 21.7112C7.35596 25.7356 7.37332 26.2392 7.44713 27.8195C7.52093 29.3954 7.76839 30.4721 8.13741 31.4185C8.51511 32.3867 9.02305 33.2159 9.84792 34.0364C10.6728 34.8612 11.4976 35.3648 12.4745 35.7469C13.4165 36.1116 14.4932 36.3634 16.0735 36.4372C17.6537 36.511 18.1573 36.5283 22.1818 36.5283C26.2063 36.5283 26.7099 36.511 28.2902 36.4372C29.8661 36.3634 30.9427 36.1159 31.8892 35.7469C32.8573 35.3692 33.6865 34.8612 34.507 34.0364C35.3319 33.2115 35.8355 32.3867 36.2175 31.4098C36.5822 30.4678 36.834 29.3911 36.9078 27.8108C36.9816 26.2306 36.999 25.727 36.999 21.7025C36.999 17.678 36.9816 17.1744 36.9078 15.5941C36.834 14.0182 36.5866 12.9416 36.2175 11.9951C35.8398 11.027 35.3319 10.1978 34.507 9.37727C33.6822 8.5524 32.8573 8.0488 31.8805 7.66676C30.9384 7.30208 29.8617 7.05028 28.2815 6.97648C26.7055 6.90701 26.2019 6.88965 22.1775 6.88965Z" fill="white"/>
<path d="M22.1774 14.0967C17.9749 14.0967 14.5669 17.5047 14.5669 21.7071C14.5669 25.9096 17.9749 29.3176 22.1774 29.3176C26.3798 29.3176 29.7878 25.9096 29.7878 21.7071C29.7878 17.5047 26.3798 14.0967 22.1774 14.0967ZM22.1774 26.6476C19.451 26.6476 17.2369 24.4379 17.2369 21.7071C17.2369 18.9764 19.451 16.7666 22.1774 16.7666C24.9038 16.7666 27.1179 18.9764 27.1179 21.7071C27.1179 24.4379 24.9038 26.6476 22.1774 26.6476Z" fill="white"/>
<path d="M30.0876 15.5765C31.0706 15.5765 31.8676 14.7796 31.8676 13.7966C31.8676 12.8135 31.0706 12.0166 30.0876 12.0166C29.1045 12.0166 28.3076 12.8135 28.3076 13.7966C28.3076 14.7796 29.1045 15.5765 30.0876 15.5765Z" fill="white"/>
</g>
<defs>
<linearGradient id="paint0_linear_44_573" x1="6.82854" y1="37.0561" x2="37.5268" y2="6.35784" gradientUnits="userSpaceOnUse">
<stop stop-color="#FFD521"/>
<stop offset="0.0551048" stop-color="#FFD020"/>
<stop offset="0.1241" stop-color="#FEC01E"/>
<stop offset="0.2004" stop-color="#FCA71B"/>
<stop offset="0.2821" stop-color="#FA8316"/>
<stop offset="0.3681" stop-color="#F85510"/>
<stop offset="0.4563" stop-color="#F51E09"/>
<stop offset="0.5" stop-color="#F30005"/>
<stop offset="0.5035" stop-color="#F20007"/>
<stop offset="0.5966" stop-color="#E1003B"/>
<stop offset="0.6879" stop-color="#D30067"/>
<stop offset="0.7757" stop-color="#C70088"/>
<stop offset="0.8589" stop-color="#BF00A0"/>
<stop offset="0.9357" stop-color="#BB00AF"/>
<stop offset="1" stop-color="#B900B4"/>
</linearGradient>
<clipPath id="clip0_44_573">
<rect width="43.4139" height="43.4139" fill="white" transform="translate(0.470703)"/>
</clipPath>
</defs>
</svg>
