<svg width="70" height="70" viewBox="0 0 70 70" fill="none" xmlns="http://www.w3.org/2000/svg">
<circle cx="35" cy="35" r="35" transform="matrix(-1 0 0 1 70 0)" fill="#002B54"/>
<path d="M22.0203 44.3119C20.2178 42.3974 19.25 40.2502 19.25 36.7694C19.25 30.6444 23.5497 25.1547 29.8025 22.4404L31.3653 24.8519C25.529 28.0089 24.388 32.1057 23.933 34.6887C24.8728 34.2022 26.103 34.0324 27.3088 34.1444C30.4657 34.4367 32.9543 37.0284 32.9543 40.2502C32.9543 41.8746 32.3089 43.4326 31.1603 44.5812C30.0116 45.7299 28.4537 46.3752 26.8292 46.3752C25.9309 46.3674 25.043 46.181 24.2174 45.8268C23.3918 45.4726 22.6449 44.9576 22.0203 44.3119ZM39.5203 44.3119C37.7178 42.3974 36.75 40.2502 36.75 36.7694C36.75 30.6444 41.0498 25.1547 47.3025 22.4404L48.8652 24.8519C43.029 28.0089 41.888 32.1057 41.433 34.6887C42.3727 34.2022 43.603 34.0324 44.8088 34.1444C47.9657 34.4367 50.4542 37.0284 50.4542 40.2502C50.4542 41.8746 49.8089 43.4326 48.6603 44.5812C47.5116 45.7299 45.9537 46.3752 44.3292 46.3752C43.4309 46.3674 42.543 46.181 41.7174 45.8268C40.8918 45.4726 40.1449 44.9576 39.5203 44.3119Z" fill="white"/>
</svg>
