<svg width="213" height="20" viewBox="0 0 213 20" fill="none" xmlns="http://www.w3.org/2000/svg">
<path d="M199.709 10.1138C199.418 10.1305 199.125 10.1422 198.84 10.1668C198.655 10.1822 198.575 10.1385 198.451 10.1159C198.41 10.108 198.366 10.0921 198.328 10.0942C198.04 10.1109 197.752 10.1295 197.464 10.1482C197.376 10.1873 197.321 10.2394 197.186 10.2587C197.053 10.2769 196.898 10.2773 196.751 10.2867C196.557 10.2981 196.363 10.3096 196.169 10.32C196.072 10.3252 195.993 10.3444 195.961 10.3804C195.955 10.3864 196.02 10.4012 196.055 10.4101C196.173 10.4397 196.288 10.4734 196.417 10.496C196.541 10.5177 196.694 10.4814 196.826 10.509C197.124 10.5712 197.127 10.5702 197.353 10.5576C197.547 10.5462 197.741 10.5337 197.935 10.5253C197.973 10.5232 198.017 10.5381 198.058 10.5459C198.182 10.5676 198.262 10.6173 198.444 10.5979C198.582 10.5826 198.735 10.5792 198.878 10.5709C198.999 10.5995 199.111 10.6322 199.241 10.6548C199.361 10.6765 199.397 10.6934 199.333 10.7225C199.274 10.7496 199.192 10.7608 199.083 10.763C198.986 10.7642 198.889 10.7735 198.792 10.7787C198.742 10.7818 198.695 10.7839 198.648 10.787C198.463 10.7984 198.463 10.7984 198.124 10.7354C197.992 10.7108 197.842 10.7461 197.716 10.7224C197.63 10.7067 197.557 10.6829 197.474 10.6661C197.439 10.6592 197.383 10.6584 197.339 10.6605C197.192 10.6678 197.045 10.6732 196.904 10.6865C196.804 10.6957 196.746 10.7238 196.758 10.7517C196.761 10.7627 196.831 10.7785 196.873 10.7794C196.967 10.7811 197.067 10.7669 197.158 10.7737C197.246 10.7804 197.337 10.8002 197.402 10.822C197.535 10.8676 197.684 10.8263 197.811 10.838C197.943 10.8506 198.052 10.8903 198.179 10.9139C198.211 10.9198 198.273 10.9097 198.323 10.9066C198.467 10.8992 198.611 10.8929 198.755 10.8856C198.876 10.9142 199.005 10.9398 199.114 10.9725C199.312 11.0319 199.524 11.0543 199.779 11.0248C199.923 11.0085 200.064 11.0141 200.179 11.0527C200.297 11.0924 200.432 11.0881 200.582 11.0797C200.72 11.0714 200.861 11.0491 201.002 11.0767C201.308 11.1378 201.311 11.1408 201.673 11.116C201.781 11.1087 201.864 11.1065 201.946 11.1293C202.023 11.1501 202.105 11.1678 202.185 11.1876C202.329 11.1803 202.476 11.1729 202.62 11.1646C202.805 11.1532 202.908 11.1669 202.952 11.2226C202.979 11.2565 202.991 11.2874 203.056 11.3102C203.133 11.338 203.215 11.3368 203.327 11.3285C203.432 11.3213 203.509 11.3101 203.552 11.2741C203.57 11.2591 203.605 11.245 203.637 11.233C203.664 11.2239 203.705 11.2098 203.728 11.2118C203.772 11.2157 203.831 11.2265 203.846 11.2394C203.991 11.3598 203.991 11.3608 204.138 11.3954C204.3 11.4339 204.468 11.4684 204.616 11.512C204.748 11.5506 204.88 11.5333 205.024 11.533C205.133 11.5327 205.204 11.5585 205.195 11.5845C205.19 11.5994 205.149 11.6215 205.113 11.6236C204.826 11.6442 204.535 11.6619 204.244 11.6766C204.209 11.6787 204.164 11.6608 204.123 11.6519C204.041 11.6342 203.967 11.6064 203.879 11.6006C203.79 11.5948 203.688 11.6101 203.591 11.6153C203.494 11.6205 203.391 11.6337 203.303 11.626C203.215 11.6182 203.144 11.5894 203.061 11.5707C203.023 11.5618 202.97 11.5489 202.938 11.552C202.723 11.5765 202.564 11.5439 202.411 11.5004C202.379 11.4915 202.323 11.4856 202.282 11.4877C201.941 11.5055 201.603 11.5263 201.262 11.5461C201.124 11.5544 201.012 11.5198 200.982 11.461C200.967 11.4281 200.937 11.3952 200.937 11.3623C200.937 11.3024 200.775 11.2699 200.657 11.2771C200.463 11.2876 200.266 11.296 200.075 11.3115C199.92 11.3238 199.787 11.3122 199.681 11.2765C199.557 11.2359 199.416 11.2442 199.275 11.2555C199.17 11.2638 199.141 11.2968 199.147 11.3796C199.154 11.4464 199.104 11.4675 198.913 11.479C198.672 11.4935 198.428 11.5081 198.184 11.5197C198.146 11.5217 198.102 11.5049 198.063 11.496C197.981 11.4782 197.907 11.4495 197.819 11.4437C197.731 11.4369 197.628 11.4521 197.531 11.4584C197.434 11.4636 197.331 11.4778 197.243 11.471C197.155 11.4643 197.081 11.4345 197.002 11.4158C196.963 11.4069 196.916 11.394 196.878 11.3961C196.684 11.4045 196.49 11.417 196.296 11.4284C196.079 11.4409 196.079 11.4409 195.77 11.3798C195.628 11.3522 195.487 11.3745 195.349 11.3828C195.202 11.3912 195.064 11.3955 194.949 11.3559C194.873 11.3301 194.787 11.3144 194.696 11.3196C194.452 11.3321 194.211 11.3477 193.968 11.3603C193.926 11.3624 193.871 11.3575 193.838 11.3486C193.682 11.3071 193.529 11.2745 193.312 11.296C193.124 11.3144 192.921 11.3159 192.733 11.3333C192.63 11.3425 192.583 11.3746 192.604 11.3995C192.616 11.4124 192.678 11.4273 192.719 11.4272C192.813 11.4279 192.916 11.4127 193.004 11.4185C193.186 11.43 193.278 11.5136 193.516 11.4901C193.657 11.4758 193.804 11.4704 193.951 11.4661C193.989 11.465 194.03 11.4838 194.072 11.4937C194.189 11.5204 194.293 11.5551 194.463 11.5367C194.604 11.5224 194.754 11.518 194.898 11.5097C195.127 11.4962 195.127 11.4972 195.424 11.5573C195.566 11.5859 195.707 11.5626 195.845 11.5553C195.948 11.55 196.044 11.5398 196.127 11.5536C196.253 11.5743 196.345 11.6219 196.501 11.6186C196.648 11.6152 196.792 11.6009 196.938 11.5955C197.03 11.5923 197.115 11.6081 197.189 11.6348C197.265 11.6616 197.348 11.6734 197.448 11.6671C197.592 11.6588 197.738 11.6485 197.885 11.6431C197.927 11.642 197.974 11.6509 198.012 11.6588C198.094 11.6766 198.174 11.6973 198.253 11.7161C198.397 11.7097 198.544 11.7074 198.685 11.6951C198.794 11.6858 198.871 11.6896 198.959 11.7094C199.071 11.7361 199.162 11.7837 199.344 11.7603C199.436 11.7491 199.541 11.7519 199.632 11.7417C199.744 11.7284 199.82 11.7332 199.9 11.763C200.05 11.8195 200.239 11.82 200.432 11.7976C200.644 11.7731 200.803 11.8007 200.962 11.8442C201.13 11.8897 201.13 11.8887 201.26 11.9992C201.299 12.031 201.407 12.0457 201.499 12.0395C201.651 12.0292 201.784 12.0338 201.896 12.0715C202.014 12.1121 202.155 12.1068 202.299 12.0955C202.489 12.08 202.68 12.0666 202.837 12.1241C202.913 12.1519 202.996 12.1586 203.099 12.1514C203.389 12.1327 203.683 12.121 203.968 12.0984C204.142 12.084 204.242 12.1157 204.36 12.1423C204.519 12.1789 204.692 12.2114 204.693 12.2902C204.693 12.3032 204.734 12.3181 204.77 12.328C204.846 12.3487 204.929 12.3665 205.008 12.3863C205.126 12.4159 205.241 12.4406 205.403 12.4242C205.544 12.4109 205.693 12.4066 205.837 12.3972C205.981 12.3879 206.114 12.3826 206.243 12.4202C206.394 12.4627 206.553 12.5033 206.723 12.5348C206.844 12.5574 207.003 12.5181 207.132 12.5488C207.212 12.5675 207.288 12.5893 207.374 12.6051C207.409 12.612 207.465 12.6068 207.512 12.6047C207.609 12.6005 207.709 12.5973 207.803 12.5871C207.911 12.5758 207.994 12.5776 208.076 12.6004C208.153 12.6211 208.229 12.6499 208.318 12.6557C208.45 12.6643 208.597 12.624 208.729 12.6696C208.797 12.6924 208.883 12.7142 208.971 12.7209C209.059 12.7277 209.162 12.7125 209.256 12.7133C209.297 12.7132 209.347 12.729 209.371 12.7419C209.385 12.7489 209.365 12.7679 209.345 12.7779C209.318 12.7899 209.28 12.806 209.242 12.8081C208.951 12.8268 208.66 12.8424 208.369 12.8601C208.196 12.8705 208.196 12.8705 207.846 12.8085C207.763 12.7937 207.672 12.7969 207.569 12.8042C207.431 12.8135 207.29 12.8308 207.146 12.8132C206.957 12.7458 206.725 12.7404 206.479 12.7669C206.376 12.7781 206.282 12.7784 206.205 12.7596C206.043 12.7221 205.872 12.6876 205.728 12.643C205.616 12.6083 205.563 12.6055 205.516 12.6535C205.502 12.6685 205.487 12.6845 205.49 12.6985C205.508 12.7483 205.541 12.7971 205.559 12.847C205.565 12.8609 205.542 12.877 205.527 12.892C205.481 12.934 205.419 12.9312 205.316 12.8965C205.212 12.8618 205.089 12.8392 204.924 12.8555C204.783 12.8698 204.63 12.8682 204.49 12.8835C204.272 12.906 204.119 12.8744 203.963 12.8319C203.93 12.823 203.875 12.8182 203.833 12.8203C203.396 12.8443 202.961 12.8713 202.523 12.8953C202.429 12.9005 202.344 12.8857 202.27 12.859C202.193 12.8322 202.108 12.8185 202.014 12.8237C201.626 12.8456 201.238 12.8655 200.85 12.8924C200.692 12.9037 200.565 12.8911 200.456 12.8564C200.374 12.8306 200.297 12.8229 200.194 12.8261C200.083 12.8294 200.003 12.8395 199.948 12.8686C199.895 12.8967 199.934 12.9136 200.051 12.9352C200.178 12.9589 200.296 12.9895 200.417 13.0172C200.513 13.0129 200.61 13.0047 200.704 13.0055C200.746 13.0054 200.784 13.0233 200.825 13.0331C200.943 13.0618 201.052 13.0905 201.219 13.0741C201.36 13.0598 201.51 13.0564 201.654 13.0471C201.854 13.0356 201.854 13.0356 202.178 13.0977C202.26 13.1135 202.349 13.1123 202.454 13.103C202.545 13.0958 202.64 13.1096 202.705 13.1393C202.731 13.1513 202.722 13.1712 202.667 13.2372C202.668 13.2861 202.729 13.264 202.749 13.2321C202.781 13.1861 202.719 13.1712 202.602 13.1965C202.52 13.2146 202.479 13.2407 202.5 13.2616C202.512 13.2726 202.568 13.2864 202.667 13.2372C202.925 13.1767 203.122 13.1693 203.31 13.1528C203.422 13.1436 203.492 13.1474 203.581 13.1731C203.687 13.2038 203.793 13.2365 203.966 13.2201C204.154 13.2017 204.354 13.1992 204.545 13.1838C204.721 13.1694 204.813 13.2131 204.925 13.2387C205.06 13.2693 205.21 13.2341 205.333 13.2517C205.463 13.2694 205.554 13.313 205.704 13.3207C205.922 13.2932 206.06 13.3428 206.225 13.3753C206.355 13.3999 206.507 13.3776 206.645 13.3663C206.801 13.3539 206.93 13.3646 207.04 13.4003C207.163 13.4409 207.301 13.4316 207.443 13.4222C207.772 13.4015 207.783 13.3984 207.975 13.4529C208.113 13.4925 208.245 13.4742 208.384 13.4688C208.504 13.4955 208.622 13.5241 208.749 13.5478C208.781 13.5537 208.843 13.5436 208.893 13.5405C209.037 13.5321 209.184 13.5238 209.327 13.5155C209.424 13.5102 209.527 13.495 209.615 13.5008C209.704 13.5075 209.777 13.5363 209.857 13.5551C209.936 13.5739 210.019 13.5926 210.096 13.6124C210.213 13.642 210.325 13.6667 210.49 13.6513C210.631 13.638 210.778 13.6337 210.925 13.6243C211.11 13.6129 211.104 13.6159 211.448 13.675C211.634 13.7074 211.824 13.6671 212.012 13.6626C212.107 13.6604 212.198 13.6711 212.263 13.6999C212.289 13.7118 212.281 13.7318 212.29 13.7488C211.805 13.7769 211.317 13.801 210.838 13.8351C210.653 13.8485 210.556 13.8128 210.456 13.7832C210.291 13.7357 210.074 13.806 209.917 13.7445C209.823 13.7078 209.688 13.6872 209.526 13.7056C209.432 13.7158 209.332 13.715 209.235 13.7242C208.988 13.7468 208.762 13.7484 208.565 13.68C208.497 13.6562 208.4 13.6435 208.329 13.6207C208.246 13.5959 208.167 13.5821 208.07 13.5874C207.632 13.6124 207.197 13.6374 206.763 13.6644C206.724 13.6665 206.686 13.6815 206.654 13.6926C206.572 13.7207 206.599 13.7426 206.731 13.7603C206.775 13.7662 206.811 13.779 206.852 13.7889C206.931 13.8077 207.005 13.8375 207.093 13.8442C207.182 13.851 207.284 13.8368 207.381 13.8315C207.478 13.8263 207.581 13.8111 207.669 13.8169C207.758 13.8236 207.831 13.8524 207.914 13.8702C207.952 13.8791 207.999 13.8939 208.037 13.8928C208.231 13.8864 208.422 13.8749 208.616 13.8655C208.737 13.8921 208.84 13.9308 208.984 13.9394C209.076 13.9452 209.172 13.934 209.266 13.9357C209.308 13.9366 209.361 13.9515 209.381 13.9644C209.393 13.9724 209.355 13.9924 209.326 14.0025C209.214 14.0407 209.062 14.034 208.924 14.0463C208.774 14.0597 208.638 14.056 208.523 14.0174C208.447 13.9916 208.361 13.9779 208.267 13.9831C208.024 13.9967 207.783 14.0122 207.539 14.0238C207.498 14.0259 207.448 14.017 207.409 14.0101C207.1 13.95 207.1 13.948 206.883 13.9615C206.563 13.9812 206.563 13.9812 206.348 13.9289C206.306 13.919 206.262 13.9001 206.227 13.9012C205.886 13.918 205.548 13.9348 205.21 13.9586C205.099 13.9658 205.022 13.966 204.94 13.9403C204.869 13.9185 204.786 13.8937 204.698 13.888C204.607 13.8822 204.507 13.8974 204.41 13.9026C204.313 13.9079 204.21 13.9211 204.125 13.9133C204.037 13.9055 203.96 13.8778 203.884 13.858C203.804 13.8373 203.719 13.8384 203.61 13.8467C203.275 13.8705 203.272 13.8675 202.94 13.8064C202.901 13.7995 202.851 13.7917 202.81 13.7938C202.566 13.8063 202.325 13.8219 202.082 13.8345C201.988 13.8397 201.896 13.8269 201.831 13.7981C201.805 13.7862 201.813 13.7662 201.795 13.7274C201.775 13.7184 201.798 13.7343 201.804 13.7493C201.849 13.7472 201.901 13.7491 201.934 13.741C202.016 13.7218 202.057 13.6968 202.036 13.6759C202.024 13.6649 201.968 13.6511 201.933 13.6512C201.868 13.6513 201.813 13.6734 201.795 13.7274C201.611 13.7607 201.414 13.7682 201.223 13.7846C201.111 13.7949 201.041 13.7901 200.952 13.7643C200.846 13.7327 200.737 13.702 200.564 13.7184C200.376 13.7368 200.176 13.7403 199.982 13.7547C199.759 13.7712 199.661 13.6817 199.473 13.6841C199.279 13.6866 199.085 13.704 198.891 13.7165C198.721 13.7269 198.721 13.7269 198.367 13.6628C198.238 13.6392 198.085 13.6745 197.959 13.6499C197.873 13.6341 197.8 13.6103 197.717 13.5936C197.682 13.5867 197.626 13.5868 197.582 13.5889C197.338 13.6015 197.091 13.6101 196.856 13.6326C196.589 13.6592 196.386 13.6317 196.194 13.5733C195.953 13.5849 195.71 13.5915 195.472 13.611C195.298 13.6254 195.198 13.5927 195.08 13.5661C195.039 13.5572 195.004 13.5423 194.96 13.5384C194.915 13.5345 194.863 13.5426 194.816 13.5457C194.622 13.5572 194.422 13.5627 194.234 13.5811C194.002 13.6046 193.913 13.523 193.734 13.5134C193.613 13.5626 193.549 13.6296 193.311 13.6352C193.117 13.6397 192.923 13.6561 192.73 13.6676C192.633 13.6728 192.536 13.679 192.439 13.6842C192.283 13.6936 192.21 13.7327 192.243 13.7925C192.261 13.8254 192.276 13.8583 192.291 13.8912C192.321 13.95 192.247 14.0001 192.124 14.0074C191.783 14.0271 191.445 14.0479 191.105 14.0657C191.013 14.0709 190.925 14.0542 190.851 14.0274C190.775 14.0006 190.689 13.9889 190.595 13.9941C190.255 14.0139 189.917 14.0347 189.576 14.0525C189.538 14.0546 189.488 14.0447 189.449 14.0368C189.367 14.019 189.287 13.9983 189.208 13.9795C189.014 13.989 188.823 13.9954 188.632 14.0079C188.324 14.0266 188.323 14.0276 188.097 13.9732C188.055 13.9633 188.014 13.9445 187.976 13.9456C187.829 13.9499 187.685 13.9603 187.538 13.9696C187.106 13.9966 187.106 13.9966 186.98 13.967C186.865 13.9393 186.762 13.9056 186.588 13.922C186.4 13.9404 186.2 13.9469 186.007 13.9574C185.863 13.9647 185.719 13.973 185.575 13.9754C185.536 13.9765 185.495 13.9576 185.454 13.9477C185.336 13.9171 185.221 13.8924 185.06 13.9098C184.966 13.92 184.866 13.9222 184.769 13.9274C184.516 13.942 184.516 13.942 184.101 13.8831C184.06 13.8773 184.01 13.8704 183.969 13.8735C183.628 13.8923 183.29 13.9131 182.949 13.9309C182.908 13.933 182.858 13.9271 182.817 13.9222C182.352 13.8654 182.352 13.8654 181.858 13.8946C181.67 13.905 181.665 13.909 181.467 13.8566C181.379 13.8339 181.305 13.8231 181.202 13.8303C180.815 13.8552 180.424 13.8721 180.039 13.901C179.866 13.9134 179.765 13.8837 179.648 13.857C179.606 13.8482 179.562 13.8283 179.527 13.8294C179.139 13.8493 178.751 13.8732 178.363 13.8931C178.328 13.8952 178.284 13.8753 178.243 13.8665C178.163 13.8487 178.086 13.8219 177.998 13.8162C177.907 13.8104 177.807 13.8256 177.707 13.8308C177.463 13.8444 177.463 13.8434 177.181 13.7852C177.142 13.7773 177.092 13.7665 177.054 13.7685C176.666 13.7895 176.276 13.8074 175.891 13.8372C175.67 13.8538 175.52 13.8252 175.364 13.7836C175.332 13.7747 175.276 13.7709 175.235 13.773C174.797 13.797 174.362 13.824 173.924 13.848C173.833 13.8532 173.745 13.8365 173.671 13.8107C173.553 13.7701 173.415 13.7754 173.268 13.7847C172.93 13.8065 172.928 13.8055 172.727 13.7581C172.686 13.7482 172.651 13.7353 172.606 13.7305C172.565 13.7256 172.512 13.7287 172.468 13.7308C172.274 13.7412 172.081 13.7527 171.887 13.7641C171.693 13.7756 171.496 13.7821 171.305 13.7995C171.07 13.821 170.958 13.7564 170.793 13.7269C170.552 13.7404 170.305 13.749 170.067 13.7706C169.885 13.787 169.799 13.7433 169.679 13.7206C169.637 13.7127 169.593 13.6959 169.555 13.698C169.117 13.721 168.679 13.746 168.245 13.774C168.139 13.7802 168.068 13.7724 167.98 13.7487C167.782 13.6953 167.774 13.6973 167.445 13.7181C167.301 13.7274 167.163 13.7357 167.039 13.6951C166.93 13.6584 166.797 13.6498 166.642 13.6621C166.451 13.6776 166.254 13.686 166.06 13.6965C165.866 13.7079 165.672 13.7234 165.478 13.7288C165.322 13.7342 165.228 13.6875 165.104 13.6639C165.066 13.657 165.013 13.6561 164.969 13.6582C164.775 13.6677 164.575 13.6751 164.387 13.6926C164.158 13.7141 164.031 13.6595 163.869 13.628C163.834 13.6211 163.775 13.6252 163.731 13.6283C163.39 13.6471 163.053 13.6679 162.712 13.6876C162.591 13.661 162.467 13.6354 162.347 13.6087C162.153 13.6192 161.959 13.6306 161.765 13.641C161.618 13.6494 161.468 13.6527 161.33 13.6681C161.151 13.6884 161.062 13.6418 160.942 13.6191C160.9 13.6112 160.856 13.5944 160.818 13.5964C160.574 13.608 160.33 13.6206 160.089 13.6381C159.86 13.6557 159.768 13.5661 159.58 13.5675C159.386 13.569 159.186 13.5825 158.998 13.6009C158.781 13.6224 158.628 13.5908 158.472 13.5483C158.439 13.5394 158.384 13.5345 158.342 13.5366C158.099 13.5492 157.858 13.5647 157.614 13.5773C157.573 13.5794 157.523 13.5745 157.481 13.5686C157.017 13.5109 157.017 13.5099 156.814 13.5224C156.67 13.5307 156.523 13.541 156.376 13.5464C156.335 13.5485 156.285 13.5396 156.246 13.5317C155.94 13.4716 155.94 13.4706 155.72 13.4831C155.526 13.4945 155.332 13.506 155.138 13.5174C155.017 13.4908 154.894 13.4651 154.773 13.4385C154.532 13.4521 154.285 13.4626 154.047 13.4812C153.936 13.4894 153.862 13.4866 153.777 13.4619C153.671 13.4322 153.565 13.3975 153.388 13.4149C153.2 13.4333 153.001 13.4358 152.81 13.4513C152.58 13.4698 152.486 13.3792 152.3 13.3806C152.106 13.3821 151.907 13.3956 151.719 13.414C151.501 13.4355 151.348 13.4039 151.192 13.3614C151.16 13.3525 151.104 13.3476 151.063 13.3497C150.528 13.38 149.996 13.4102 149.461 13.4424C149.132 13.4622 149.132 13.4632 148.506 13.4098C148.462 13.4059 148.415 13.4021 148.371 13.4042C148.177 13.4136 147.977 13.4211 147.789 13.4385C147.56 13.46 147.433 13.4064 147.271 13.3739C147.236 13.367 147.18 13.3711 147.133 13.3732C146.986 13.3806 146.842 13.3899 146.695 13.3983C146.501 13.4097 146.307 13.4212 146.113 13.4326C145.993 13.4069 145.869 13.3803 145.748 13.3546C145.507 13.3682 145.26 13.3758 145.022 13.3973C144.84 13.4137 144.755 13.372 144.634 13.3484C144.593 13.3405 144.549 13.3236 144.51 13.3247C144.073 13.3477 143.635 13.3718 143.2 13.4008C143.021 13.4132 142.938 13.3685 142.817 13.3458C142.776 13.3389 142.729 13.3261 142.691 13.3282C142.4 13.3428 142.109 13.3605 141.818 13.3782C141.654 13.3886 141.654 13.3886 141.295 13.3275C141.253 13.3207 141.206 13.3138 141.165 13.3159C140.243 13.368 139.323 13.4232 138.4 13.4753C138.306 13.4805 138.221 13.4658 138.147 13.439C138.071 13.4122 137.985 13.3985 137.891 13.4037C137.503 13.4256 137.113 13.4455 136.728 13.4724C136.569 13.4838 136.443 13.4711 136.334 13.4364C136.251 13.4107 136.175 13.4009 136.072 13.4071C135.878 13.4196 135.684 13.43 135.49 13.4415C135.296 13.4529 135.102 13.4644 134.908 13.4758C134.714 13.4873 134.518 13.4937 134.327 13.5112C134.092 13.5327 133.977 13.4711 133.815 13.4405C133.524 13.4562 133.233 13.4719 132.945 13.4886C132.557 13.5105 132.169 13.5344 131.781 13.5553C131.746 13.5573 131.702 13.5395 131.661 13.5306C131.54 13.506 131.451 13.4712 131.272 13.4827C130.403 13.5377 129.527 13.5847 128.655 13.6387C128.472 13.6501 128.393 13.6074 128.269 13.5848C128.228 13.5779 128.181 13.564 128.142 13.5661C127.658 13.5922 127.173 13.6213 126.688 13.6495C126.491 13.6609 126.491 13.6609 126.162 13.5999C126.123 13.593 126.073 13.5841 126.032 13.5862C125.4 13.6217 124.772 13.6591 124.14 13.6956C124.046 13.7008 123.961 13.687 123.884 13.6603C123.81 13.6335 123.722 13.6188 123.631 13.624C123.049 13.6573 122.464 13.6897 121.886 13.726C121.73 13.7364 121.601 13.7277 121.489 13.6921C121.409 13.6663 121.33 13.6555 121.23 13.6617C120.357 13.7128 119.484 13.7618 118.612 13.8158C118.444 13.8262 118.327 13.8075 118.221 13.7748C118.135 13.7491 118.062 13.7443 117.956 13.7485C117.844 13.7538 117.777 13.7649 117.715 13.795C117.636 13.8341 117.587 13.8832 117.399 13.8866C117.205 13.8901 117.008 13.9025 116.817 13.92C116.635 13.9374 116.549 13.8927 116.434 13.866C116.349 13.8473 116.269 13.8445 116.161 13.8537C116.061 13.8619 115.999 13.879 115.941 13.9111C115.812 13.9793 115.8 13.9793 115.641 13.9368C115.556 13.9141 115.479 13.8963 115.385 13.9005C114.997 13.9214 114.609 13.9443 114.222 13.9682C113.998 13.9817 113.995 13.9837 113.828 13.9342C113.745 13.9095 113.665 13.8977 113.569 13.9039C112.502 13.9664 111.436 14.0269 110.369 14.0923C110.205 14.1027 110.093 14.082 109.975 14.0524C109.937 14.0425 109.898 14.0286 109.854 14.0247C109.81 14.0208 109.76 14.0249 109.713 14.0271C108.937 14.0719 108.159 14.1147 107.386 14.1644C107.21 14.1759 107.116 14.1442 106.995 14.1185C106.954 14.1096 106.918 14.0957 106.874 14.0918C106.83 14.089 106.777 14.0961 106.73 14.0992C105.954 14.144 105.176 14.1868 104.403 14.2366C104.218 14.248 104.138 14.2063 104.018 14.1846C103.976 14.1767 103.932 14.1619 103.894 14.1639C103.65 14.1755 103.409 14.1911 103.165 14.2046C102.584 14.239 102.002 14.2714 101.42 14.3067C101.197 14.3202 101.099 14.2316 100.911 14.2361C100.667 14.2417 100.426 14.2622 100.182 14.2768C99.9885 14.2882 99.7946 14.2987 99.6007 14.3111C99.4098 14.3226 99.4097 14.3226 98.9331 14.2658C98.8919 14.2609 98.8418 14.2541 98.8007 14.2562C98.122 14.2947 97.4404 14.3333 96.7647 14.3749C96.609 14.3843 96.4796 14.3796 96.3676 14.3429C96.288 14.3172 96.2056 14.3044 96.1086 14.3106C95.0892 14.37 94.0726 14.4293 93.0531 14.4877C93.0149 14.4898 92.9649 14.4799 92.9266 14.472C92.8441 14.4543 92.7645 14.4335 92.685 14.4148C92.6264 14.4378 92.5502 14.459 92.5123 14.485C92.4596 14.5201 92.3892 14.5302 92.2775 14.5365C92.1659 14.5428 92.0953 14.5409 92.0069 14.5152C91.9008 14.4835 91.7918 14.4588 91.6185 14.4692C90.552 14.5347 89.4855 14.5942 88.419 14.6586C88.2427 14.6691 88.1601 14.6253 88.0365 14.6027C87.9952 14.5958 87.9481 14.5849 87.9099 14.587C87.4721 14.611 87.0373 14.6371 86.5995 14.6621C85.3861 14.7329 84.1728 14.8007 82.9623 14.8755C82.742 14.889 82.5919 14.8644 82.4357 14.8219C82.4033 14.813 82.3474 14.8081 82.3063 14.8102C80.6081 14.9082 78.9099 15.0071 77.2147 15.106C77.1236 15.1112 77.0353 15.0955 76.9616 15.0697C76.8849 15.043 76.7996 15.0302 76.7056 15.0354C75.9299 15.0802 75.1543 15.125 74.3787 15.1708C74.1848 15.1823 74.1818 15.1832 73.9815 15.1358C73.9403 15.126 73.8961 15.1071 73.8638 15.1092C73.7962 15.1143 73.7317 15.1394 73.685 15.1735C73.6383 15.2095 73.5649 15.2197 73.4562 15.2269C73.3445 15.2342 73.271 15.2314 73.1856 15.2076C73.0766 15.178 72.9764 15.1493 72.8001 15.1597C70.5702 15.2928 68.3402 15.421 66.1103 15.5532C65.9311 15.5636 65.8484 15.5219 65.7247 15.4992C65.6835 15.4923 65.6423 15.4824 65.5982 15.4806C65.5512 15.4787 65.5012 15.4848 65.4542 15.4879C61.817 15.6993 58.1798 15.9117 54.5426 16.1232C54.3252 16.1357 54.3281 16.1357 54.0908 16.2281C54.0615 16.2391 54.0234 16.2542 53.9822 16.2563C52.8688 16.3228 51.7523 16.3874 50.6359 16.452C50.1511 16.4801 49.6664 16.5093 49.1816 16.5364C49.0083 16.5458 49.0083 16.5458 48.5947 16.6546C48.5596 16.6637 48.5185 16.6757 48.4773 16.6778C46.5383 16.7913 44.5992 16.9048 42.6571 17.0163C42.5044 17.0247 42.3811 17.0429 42.311 17.091C42.2613 17.1251 42.1968 17.1452 42.0998 17.1514C40.7425 17.2305 39.3852 17.3107 38.0249 17.3878C37.8633 17.3972 37.7665 17.4254 37.6875 17.4675C37.6612 17.4815 37.6378 17.4976 37.5996 17.5076C37.5644 17.5167 37.5116 17.5198 37.4675 17.5229C36.3041 17.5906 35.1407 17.6603 33.9743 17.725C33.8009 17.7344 33.7307 17.7715 33.6458 17.8106C33.6165 17.8237 33.596 17.8417 33.5579 17.8508C33.5198 17.8589 33.4639 17.859 33.4169 17.8611C32.4474 17.9173 31.4779 17.9746 30.5083 18.0308C30.3202 18.0263 30.2795 18.0843 30.1887 18.1194C30.1564 18.1315 30.1331 18.1475 30.095 18.1556C30.0539 18.1637 30.0009 18.1628 29.9509 18.1649C29.1753 18.2097 28.3997 18.2575 27.6211 18.2993C27.4419 18.3087 27.4071 18.3597 27.3104 18.3949C27.2781 18.4059 27.246 18.423 27.2078 18.4261C26.723 18.4562 26.2383 18.4843 25.7535 18.5114C25.5919 18.5208 25.5919 18.5198 25.3076 18.6193C25.2754 18.6304 25.2373 18.6424 25.1961 18.6455C24.4705 18.6892 23.7418 18.7309 23.0132 18.7736C22.9192 18.7788 22.8548 18.8029 22.808 18.837C22.7613 18.871 22.6939 18.8931 22.5999 18.8983C22.0182 18.9327 21.4364 18.968 20.8546 18.9994C20.693 19.0078 20.5875 19.033 20.5173 19.078C20.4647 19.1121 20.4002 19.1292 20.2974 19.1355C19.7156 19.1688 19.1339 19.2052 18.5492 19.2345C18.3788 19.2429 18.2909 19.2771 18.2207 19.3191C18.1652 19.3532 18.1006 19.3653 17.9919 19.3716C16.9254 19.4321 15.856 19.4925 14.7925 19.559C14.6133 19.5704 14.5218 19.5357 14.404 19.5111C14.2362 19.4765 14.0801 19.439 14.0794 19.3611C14.0793 19.3492 14.0292 19.3353 13.9938 19.3254C13.7316 19.2512 13.7316 19.2512 13.6897 19.1715C13.6658 19.1226 13.6389 19.0728 13.6179 19.023C13.579 18.9412 13.4847 18.9205 13.2144 18.9361C13.1174 18.9414 13.0205 18.9486 12.9235 18.9528C12.7796 18.9601 12.6705 18.9275 12.6436 18.8677C12.6286 18.8348 12.6107 18.8019 12.5957 18.769C12.7426 18.7606 12.7396 18.7596 12.9972 18.6383C13.1055 18.5871 13.1056 18.5871 12.8964 18.5367C12.8169 18.5179 12.7403 18.4972 12.6549 18.4794C12.6166 18.4715 12.5666 18.4667 12.5255 18.4687C12.2816 18.4813 12.0407 18.4959 11.7998 18.5104C11.412 18.5333 11.4119 18.5333 11.0172 18.4325C10.9848 18.4246 10.9347 18.4097 10.9405 18.4018C10.9725 18.3647 11.0517 18.3486 11.1516 18.3443C11.2985 18.338 11.4425 18.3277 11.5864 18.3193C11.6834 18.3141 11.7803 18.3079 11.8773 18.3027C11.9681 18.2645 12.0619 18.2274 12.1468 18.1882C12.2815 18.128 12.2814 18.126 12.0959 18.0846C11.978 18.0569 11.8514 18.0323 11.7307 18.0066C11.5867 18.015 11.4398 18.0243 11.2959 18.0316C11.1137 18.0411 11.04 18.0223 10.9924 17.9575C10.9508 17.9007 11.0004 17.8517 11.1413 17.8394C11.2853 17.8271 11.4205 17.8188 11.4935 17.7677C11.5636 17.7186 11.6869 17.6994 11.8397 17.695C11.9367 17.6918 12.0336 17.6846 12.1306 17.6783C12.2569 17.67 12.3241 17.619 12.2971 17.5622C12.2821 17.5253 12.2524 17.4944 12.1377 17.4867C11.6289 17.453 11.623 17.454 11.3696 17.3868C11.3461 17.3808 11.3283 17.3629 11.3371 17.3539C11.3516 17.3389 11.3838 17.3169 11.419 17.3138C11.7569 17.291 12.0947 17.2702 12.4326 17.2545C12.5443 17.2492 12.6265 17.242 12.6644 17.205C12.7169 17.154 12.693 17.1071 12.5898 17.0724C12.5573 17.0615 12.5043 17.0477 12.469 17.0488C12.0811 17.0677 11.6963 17.0916 11.3085 17.1105C11.2732 17.1126 11.2084 17.0958 11.1936 17.0828C11.164 17.0589 11.2078 17.0269 11.3106 17.0157C11.4457 17.0004 11.5838 16.999 11.6745 16.9489C11.8003 16.8778 11.9555 16.8125 12.096 16.7443C12.1194 16.7323 12.1574 16.7092 12.1486 16.7073C12.0749 16.6855 11.9895 16.6687 11.9129 16.6479C11.7833 16.6133 11.7828 16.5644 11.8118 16.5175C11.835 16.4795 11.9231 16.4643 12.0318 16.464C12.0788 16.4639 12.1376 16.4638 12.1758 16.4547C12.2755 16.4325 12.3076 16.4045 12.2575 16.3836C12.228 16.3717 12.1749 16.3549 12.1397 16.357C11.5109 16.3915 10.8792 16.4249 10.2534 16.4674C10.0684 16.4798 9.98285 16.4421 9.87092 16.4154C9.78549 16.3946 9.70601 16.3869 9.60032 16.4021C9.50051 16.4163 9.40347 16.4086 9.34145 16.3758C9.29125 16.349 9.37922 16.3258 9.61708 16.2993C9.66113 16.2942 9.71106 16.291 9.7433 16.281C10.0833 16.1724 10.0833 16.1714 10.3183 16.1568C10.5475 16.1433 10.5476 16.1423 10.6676 16.0841C10.7232 16.0571 10.7846 16.03 10.8373 16.0019C10.8578 15.9909 10.8929 15.9708 10.8811 15.9649C10.8162 15.9341 10.7279 15.9273 10.6251 15.9345C10.3959 15.9521 10.1254 15.9388 10.0057 16.0338C9.95903 16.0699 9.88563 16.0801 9.77986 16.0863C8.71629 16.1468 7.65273 16.2112 6.58621 16.2697C6.41286 16.2791 6.33386 16.3162 6.26661 16.3573C6.20812 16.3914 6.14352 16.4015 6.03188 16.4078C5.92023 16.414 5.83203 16.4172 5.76708 16.3845C5.72869 16.3646 5.76079 16.3366 5.84873 16.3084C5.97478 16.2682 5.95082 16.2184 5.90926 16.1716C5.8796 16.1407 5.78829 16.119 5.6913 16.1212C5.54731 16.1255 5.40929 16.1368 5.28842 16.0972C5.21768 16.0744 5.12934 16.0587 5.0498 16.0389C4.8966 15.9984 4.74338 15.9568 4.52903 15.9843C4.38198 15.9747 4.27878 15.939 4.16096 15.9113C3.96362 15.8659 3.94593 15.859 4.08659 15.8097C4.24484 15.7545 4.12074 15.6829 4.20845 15.6288C4.30201 15.5707 4.43095 15.5195 4.54512 15.4653C4.57439 15.4513 4.60074 15.4382 4.63001 15.4242C4.56223 15.4044 4.5003 15.3796 4.42082 15.3658C4.31778 15.3481 4.26468 15.3263 4.27002 15.2644C4.24936 15.2555 4.25832 15.2784 4.28189 15.2843C4.30839 15.2902 4.37307 15.2851 4.40534 15.278C4.48748 15.2589 4.52837 15.2338 4.50761 15.2129C4.49576 15.202 4.43983 15.1881 4.40456 15.1882C4.33989 15.1884 4.28424 15.2105 4.26707 15.2644C3.93822 15.3061 3.59736 15.3269 3.25653 15.3437C3.22127 15.3458 3.17703 15.3259 3.1358 15.316C3.00029 15.2824 3.00028 15.2834 2.60337 15.2744C2.56221 15.2735 2.50627 15.2597 2.48557 15.2458C2.3998 15.1851 2.40218 15.1182 2.36046 15.0535C2.43652 15.0114 2.51253 14.9703 2.59154 14.9292C2.74955 14.8459 2.95472 14.7726 3.07739 14.6815C3.05051 14.6326 3.0148 14.5838 3.14379 14.5436C3.51078 14.4928 3.50787 14.4928 3.60739 14.4447C3.89133 14.3083 4.17231 14.1709 4.46803 14.0364C4.54709 14.0013 4.54694 13.9823 4.40571 13.9677C4.36159 13.9638 4.31449 13.9629 4.26747 13.965C4.12056 13.9724 3.97375 13.9907 3.82968 13.9871C3.68563 13.9844 3.57943 13.9408 3.46161 13.9141C3.34086 13.8865 3.22009 13.8578 3.09933 13.8292C2.9612 13.8325 2.82332 13.8608 2.68477 13.8162C2.57865 13.7815 2.44617 13.7569 2.3254 13.7282C2.41586 13.6522 2.58587 13.5939 2.71756 13.5267C2.83755 13.4655 2.84043 13.4665 3.16336 13.4188C3.31602 13.3965 3.36795 13.2836 3.23833 13.251C3.08219 13.2115 2.9173 13.1749 2.75824 13.1374C2.62011 13.1407 2.47929 13.168 2.34662 13.1234C2.24345 13.0898 2.12565 13.0671 1.95527 13.0805C1.6674 13.1031 1.37356 13.1148 1.08272 13.1335C0.98283 13.1397 0.874006 13.136 0.829619 13.1022C0.800017 13.0783 0.884979 13.0452 0.981919 13.0379C1.1288 13.0276 1.26096 13.0153 1.33401 12.9652C1.40412 12.9152 1.53331 12.8999 1.6861 12.8925C1.72724 12.8904 1.7742 12.8783 1.79467 12.8663C1.89998 12.8082 2.01713 12.758 2.24349 12.7594C2.33738 12.7392 2.3871 12.7142 2.35749 12.6903C2.33974 12.6774 2.2779 12.6605 2.24265 12.6626C1.99876 12.6732 1.75488 12.6838 1.51695 12.7023C1.40532 12.7106 1.32005 12.7128 1.24924 12.683C1.1991 12.6632 1.22532 12.6362 1.31913 12.607C1.40121 12.5818 1.4245 12.5528 1.41833 12.5189C1.40294 12.4401 1.31455 12.4174 1.0324 12.4231C0.82962 12.4275 0.779534 12.4147 0.734853 12.3469C0.722956 12.331 0.693423 12.3091 0.713903 12.2981C0.839708 12.2299 0.921288 12.1459 1.1591 12.1134C1.25306 12.1012 1.35296 12.1009 1.41152 12.0748C1.47009 12.0488 1.52276 12.0187 1.58427 11.9936C1.66044 11.9635 1.71305 11.9354 1.67761 11.9165C1.61853 11.8827 1.52447 11.88 1.41582 11.8922C1.32184 11.9024 1.22192 11.9037 1.12497 11.9099C0.951637 11.9213 0.810351 11.8957 0.789394 11.8518C0.732538 11.7362 0.672734 11.6216 0.621757 11.5059C0.615757 11.492 0.630258 11.474 0.653669 11.4619C0.735608 11.4198 0.823478 11.3797 0.908365 11.3386C1.0079 11.2914 1.16673 11.3 1.30186 11.2907C1.49281 11.2773 1.49276 11.2783 1.74765 11.1818C1.84726 11.1437 2.02083 11.1582 2.12341 11.124C2.15565 11.113 2.20546 11.0949 2.19656 11.0849C2.18469 11.072 2.12584 11.0622 2.0817 11.0563C2.0405 11.0504 1.99051 11.0475 1.94645 11.0506C1.41173 11.0809 0.879975 11.1131 0.345244 11.1423C0.254165 11.1476 0.154032 11.1258 0.121429 11.095C0.0888436 11.0661 0.0973293 11.0312 0.0911641 10.9982C0.176051 10.9571 0.272685 10.919 0.345788 10.8749C0.401342 10.8408 0.465891 10.8257 0.577571 10.8234C0.724516 10.8201 0.868458 10.8077 1.03299 10.7984C1.33742 10.6519 1.63589 10.4985 1.96384 10.352C2.0956 10.2928 2.0628 10.233 2.08871 10.1701C2.11466 10.1121 2.31166 10.1206 2.44379 10.1033C2.54949 10.0891 2.58444 10.0571 2.5431 10.0352C2.51947 10.0223 2.46646 10.0075 2.4253 10.0076C2.3283 10.0078 2.23138 10.017 2.13443 10.0223C2.03747 10.0275 1.92575 10.0248 1.84653 10.0419C1.77025 10.0581 1.72054 10.0921 1.67083 10.1212C1.61525 10.1533 1.54192 10.1644 1.43024 10.1667C1.28622 10.169 1.14228 10.1784 0.998307 10.1857C0.83924 10.1472 0.674268 10.1096 0.521063 10.0691C0.491599 10.0612 0.485489 10.0383 0.488299 10.0233C0.493839 9.98434 0.449551 9.96049 0.352385 9.94177C0.269943 9.926 0.202131 9.90321 0.125532 9.88344C0.184086 9.85635 0.248551 9.83024 0.29533 9.80119C0.39768 9.74006 0.526647 9.69585 0.75006 9.6973C0.837904 9.65817 0.908013 9.61009 1.02242 9.58287C1.13095 9.55666 1.31637 9.58215 1.39816 9.52307C1.43906 9.49403 1.50053 9.46095 1.57979 9.44878C1.70602 9.42951 1.87072 9.4391 1.94371 9.38303C1.98753 9.35099 2.05192 9.32189 2.13709 9.3137C2.23401 9.30448 2.33391 9.30225 2.40429 9.28312C2.44242 9.27304 2.48344 9.25698 2.48331 9.243C2.48324 9.23402 2.42437 9.22019 2.38317 9.2143C2.3449 9.20741 2.29482 9.20254 2.25075 9.20465C2.10383 9.21099 1.9599 9.22232 1.81298 9.22866C1.77185 9.23076 1.72477 9.22389 1.68063 9.21801C1.55115 9.20235 1.55978 9.18238 1.66235 9.1462C1.76492 9.11102 1.83806 9.06593 1.92294 9.02481C2.01695 9.01759 2.13453 9.0203 2.19903 9.00118C2.30752 8.96998 2.38354 8.92489 2.47138 8.88575C2.56833 8.87953 2.66825 8.8773 2.75927 8.8661C2.79745 8.86201 2.81491 8.84001 2.84713 8.82696C2.9057 8.80187 2.9554 8.76582 3.03466 8.75366C3.16384 8.73538 3.32262 8.74197 3.39857 8.6869C3.44239 8.65486 3.50967 8.62077 3.59196 8.61858C3.8212 8.61403 3.91772 8.55889 4.03485 8.50671C4.12269 8.46758 4.311 8.48709 4.40766 8.44793C4.47211 8.42283 4.5189 8.39177 4.58336 8.36766C4.60972 8.35762 4.66551 8.3525 4.70958 8.3494C4.95048 8.33384 5.19434 8.32227 5.43524 8.30571C5.47342 8.30263 5.5086 8.28758 5.53789 8.27553C5.59939 8.24944 5.63724 8.21341 5.71352 8.19626C5.7898 8.17911 5.89854 8.17885 5.99256 8.17363C6.29519 8.15793 6.31876 8.16185 6.45618 8.07669C6.56728 8.00756 6.8411 8.0558 6.93157 7.97974C6.98409 7.9357 7.08074 7.89954 7.25412 7.89413C7.49803 7.88655 7.73889 7.867 7.98275 7.85343C8.20016 7.84093 8.19723 7.84093 8.43158 7.74755C8.53703 7.70538 8.69291 7.71099 8.83099 7.70268C8.97789 7.69433 9.11299 7.68204 9.1831 7.63197C9.25322 7.5829 9.3824 7.5666 9.53225 7.55925C9.67034 7.55193 9.82621 7.55655 9.93462 7.51637C10.1983 7.41992 10.1954 7.41893 10.3805 7.4085C10.6713 7.39182 10.9622 7.37515 11.2531 7.35748C11.447 7.34603 11.6498 7.34354 11.8318 7.32114C11.9639 7.30485 12.0222 7.24883 12.1071 7.2097C12.348 7.19414 12.5889 7.17858 12.8298 7.16403C13.1677 7.14325 13.5085 7.12446 13.8493 7.10467C13.996 7.06639 14.0158 6.98251 14.2627 6.97792C14.4097 6.97557 14.5536 6.96224 14.7005 6.9539C14.9443 6.93934 15.1852 6.92079 15.4291 6.91321C15.6143 6.90777 15.6461 6.8538 15.7428 6.81963C15.775 6.80758 15.8043 6.79055 15.8425 6.78746C16.2244 6.75859 16.6182 6.75164 16.9911 6.70982C17.0293 6.70574 17.0644 6.68469 17.0731 6.6697C17.0789 6.6617 17.0288 6.64686 16.9964 6.63995C16.9581 6.63206 16.9081 6.6242 16.8669 6.6263C15.6535 6.69611 14.4402 6.76692 13.2268 6.83674C13.0564 6.84713 13.0564 6.84613 12.6429 6.95691C12.6077 6.96597 12.5666 6.97605 12.5225 6.97915C12.3286 6.9916 12.1317 6.99907 11.9408 7.01451C11.7851 7.02686 11.6557 7.01519 11.5437 6.97953C11.4641 6.95378 11.3817 6.946 11.2818 6.94824C11.1701 6.95151 11.0968 6.96267 11.0323 6.98977C10.9474 7.0269 10.9037 7.0749 10.7245 7.08532C9.89891 7.13024 9.0733 7.18015 8.25066 7.22805C8.13591 7.21436 8.07988 7.19354 8.10906 7.16852C8.12656 7.15351 8.16168 7.13347 8.19693 7.13138C8.53478 7.10961 8.87559 7.09082 9.21345 7.07004C9.26045 7.06693 9.32513 7.06876 9.3515 7.05871C9.48044 7.01349 9.52689 6.94053 9.77082 6.93494C9.91188 6.93161 10.0558 6.91629 10.1909 6.90199C10.229 6.89791 10.2641 6.87686 10.2728 6.86187C10.2757 6.85388 10.2285 6.83902 10.1932 6.83212C10.0636 6.8035 9.91403 6.8388 9.78452 6.81916C9.74037 6.81228 9.67852 6.80244 9.66959 6.79049C9.66362 6.77953 9.71344 6.76144 9.74861 6.75038C9.78086 6.74032 9.82485 6.73123 9.86891 6.72813C10.2567 6.70424 10.6446 6.67934 11.0324 6.66043C11.1911 6.65306 11.3025 6.62784 11.3727 6.58176C11.4253 6.5477 11.4898 6.52959 11.5897 6.52436C12.2684 6.48578 12.947 6.44322 13.6287 6.40763C13.7991 6.39923 13.887 6.36609 13.9572 6.323C14.0127 6.28894 14.0773 6.2768 14.186 6.27055C15.1585 6.21629 16.1251 6.15606 17.0976 6.1038C17.2768 6.09438 17.3294 6.05134 17.4202 6.0142C17.4524 6.00114 17.4728 5.98513 17.5139 5.97704C17.5549 5.96896 17.6079 5.96982 17.6578 5.9677C18.4334 5.9229 19.2091 5.87512 19.9877 5.83331C20.1699 5.82389 20.2046 5.7739 20.2984 5.73874C20.3306 5.72768 20.3599 5.70965 20.3981 5.70657C20.9798 5.67122 21.5615 5.63787 22.1432 5.60353C22.531 5.58063 22.9188 5.55773 23.3067 5.53583C23.4976 5.52538 23.4976 5.52438 23.7555 5.42895C23.7848 5.4179 23.8258 5.40482 23.864 5.40174C24.9805 5.33515 26.0939 5.27158 27.2104 5.20599C27.3044 5.20078 27.3718 5.17765 27.4185 5.1436C27.4653 5.10956 27.5327 5.08644 27.6238 5.08123C28.4964 5.02921 29.3689 4.97819 30.2445 4.92916C30.4031 4.92079 30.5146 4.89657 30.5847 4.85149C30.6374 4.81743 30.7019 4.79931 30.8018 4.79408C31.6744 4.74406 32.547 4.69103 33.4225 4.643C33.59 4.63361 33.672 4.59948 33.7539 4.55937C33.7832 4.54532 33.8065 4.52231 33.8418 4.52023C34.2766 4.49123 34.7084 4.46124 35.1462 4.44121C35.3284 4.43279 35.3898 4.39072 35.4629 4.35062C35.5214 4.31855 35.5889 4.30741 35.7006 4.30314C35.9445 4.29357 36.1854 4.27602 36.4233 4.25848C36.4586 4.2554 36.5025 4.23334 36.5053 4.21936C36.5109 4.1934 36.4431 4.1756 36.3314 4.16689C35.1679 4.23458 34.0016 4.30228 32.8381 4.36998C32.6472 4.38142 32.6472 4.38142 32.3893 4.47686C32.36 4.48791 32.3189 4.50098 32.2778 4.50408C31.1614 4.56966 30.0479 4.63424 28.9315 4.69983C28.8375 4.70505 28.7701 4.72817 28.7233 4.76221C28.6766 4.79625 28.6091 4.81937 28.518 4.82458C27.4516 4.88705 26.3851 4.95052 25.3157 5.01001C25.157 5.01838 25.0455 5.04159 24.9754 5.08767C24.9228 5.12173 24.8583 5.13985 24.7584 5.14509C23.7389 5.20345 22.7223 5.2648 21.6998 5.32117C21.597 5.32641 21.5204 5.29766 21.526 5.2707C21.5288 5.25672 21.5727 5.23367 21.6079 5.23159C22.1397 5.19736 22.6685 5.16214 23.2033 5.13589C23.3825 5.12747 23.435 5.08343 23.5258 5.04629C23.5551 5.03324 23.5785 5.01622 23.6166 5.00914C23.6577 5.00106 23.7106 5.00193 23.7606 4.99982C25.021 4.9259 26.2814 4.85098 27.5448 4.78105C27.7269 4.77062 27.7617 4.72163 27.8555 4.68647C27.8877 4.67442 27.917 4.65639 27.9552 4.6543C28.3429 4.62941 28.7308 4.60751 29.1186 4.58561C29.7973 4.54603 30.4759 4.50646 31.1575 4.46688C31.3544 4.45542 31.3544 4.45542 31.6064 4.361C31.6357 4.34995 31.6767 4.33589 31.7149 4.3338C33.51 4.22864 35.3051 4.12348 37.1003 4.01932C37.1943 4.0141 37.2617 3.99098 37.3084 3.95694C37.3552 3.92389 37.4225 3.89978 37.5136 3.89357C39.9404 3.75194 42.3642 3.61032 44.791 3.4707C44.9497 3.46133 45.0612 3.4401 45.1313 3.39302C45.181 3.35897 45.2484 3.34085 45.3483 3.33462C48.016 3.17944 50.6837 3.02425 53.3543 2.86807C55.1495 2.76391 56.9446 2.65775 58.7397 2.55559C58.9042 2.5462 58.9921 2.51505 59.0741 2.47393C59.1004 2.4599 59.1267 2.43688 59.1619 2.4348C59.5468 2.40891 59.9316 2.38503 60.3165 2.36114C60.4372 2.38779 60.558 2.41345 60.6787 2.4401C60.7695 2.40196 60.8574 2.36282 60.9482 2.32468C61.5299 2.29432 62.1027 2.24802 62.6905 2.23262C62.7287 2.23153 62.77 2.25039 62.8112 2.26027C63.0851 2.32248 63.2409 2.31711 63.4136 2.23286C63.4751 2.20277 63.5277 2.1757 63.6217 2.17048C63.9126 2.15181 64.2065 2.13912 64.4944 2.11746C64.6501 2.1061 64.7794 2.11577 64.8914 2.15142C64.971 2.17718 65.0535 2.18796 65.1504 2.18173C65.6851 2.1505 66.2169 2.12026 66.7516 2.08702C66.7898 2.08494 66.8249 2.06788 66.8542 2.05583C66.9157 2.02973 66.9684 2.00167 67.0269 1.97458C67.1064 1.99135 67.1947 2.00412 67.2596 2.02591C67.3421 2.05166 67.4185 2.05147 67.5302 2.04421C69.6631 1.91827 71.7991 1.79532 73.932 1.66838C74.1142 1.65796 74.1939 1.69969 74.3176 1.72134C74.3588 1.72922 74.4 1.7391 74.4441 1.74099C74.4912 1.74287 74.5411 1.73677 74.5881 1.73366C76.1893 1.63995 77.7905 1.54723 79.3917 1.45352C79.6033 1.44103 79.6033 1.44103 79.9183 1.50214C79.9566 1.51003 80.0066 1.51889 80.0478 1.5158C80.7764 1.4751 81.505 1.43142 82.2307 1.38974C82.3247 1.38452 82.4042 1.40029 82.4897 1.42304C82.6576 1.46754 82.6693 1.46751 82.7922 1.40135C82.8507 1.37027 82.9123 1.35115 83.0092 1.34193C83.1149 1.3317 83.2003 1.33449 83.2827 1.35226C83.4005 1.37692 83.4861 1.41862 83.6653 1.40721C84.4409 1.35842 85.2195 1.31761 85.9922 1.26782C86.1684 1.25642 86.2628 1.29012 86.3806 1.31478C86.4218 1.32366 86.4601 1.33754 86.5043 1.34043C86.5484 1.34332 86.6012 1.33619 86.6482 1.33309C87.6178 1.27684 88.5902 1.22159 89.5568 1.16136C89.7389 1.14994 89.8187 1.19265 89.9423 1.21431C89.9836 1.22219 90.0307 1.23605 90.0689 1.23396C90.6506 1.20161 91.2353 1.16725 91.8171 1.1329C92.0257 1.12042 92.0256 1.12142 92.3436 1.18152C92.3819 1.18941 92.432 1.19728 92.4731 1.19518C93.1518 1.1566 93.8334 1.11702 94.5121 1.07745C94.7207 1.06497 94.7207 1.06497 95.3237 1.1154C95.3678 1.11928 95.4149 1.12517 95.459 1.12306C96.2346 1.07826 97.0131 1.03445 97.7888 0.986659C97.9445 0.977299 98.0739 0.984966 98.1859 1.02062C98.2655 1.04637 98.3479 1.05716 98.4448 1.05093C99.3174 0.999912 100.193 0.950881 101.063 0.896873C101.23 0.886486 101.339 0.908168 101.457 0.936822C101.495 0.946709 101.533 0.96059 101.578 0.964475C101.622 0.968359 101.672 0.964243 101.719 0.961135C102.591 0.910113 103.467 0.86208 104.336 0.807074C104.513 0.795668 104.607 0.829368 104.725 0.85403C104.766 0.862912 104.81 0.880769 104.846 0.879685C105.186 0.861891 105.527 0.846098 105.865 0.820328C106.047 0.805914 106.127 0.851618 106.251 0.873273C106.292 0.880158 106.339 0.895021 106.377 0.892932C107.106 0.85224 107.834 0.809555 108.56 0.765876C108.663 0.759638 108.739 0.768426 108.822 0.794172C108.931 0.828836 109.058 0.8425 109.216 0.831137C109.554 0.807363 109.895 0.790571 110.236 0.770781C110.435 0.759318 110.435 0.759321 111.047 0.809728C111.091 0.813613 111.138 0.819482 111.183 0.817379C111.764 0.78403 112.349 0.751673 112.928 0.715337C113.083 0.704979 113.213 0.713644 113.325 0.749298C113.404 0.775052 113.484 0.785842 113.584 0.779612C114.118 0.748373 114.65 0.717139 115.185 0.6859C115.379 0.674451 115.573 0.655013 115.767 0.654542C115.908 0.655197 116.011 0.702846 116.138 0.726489C116.173 0.733389 116.232 0.725272 116.279 0.723162C116.957 0.683589 117.639 0.647 118.315 0.602445C118.491 0.591039 118.585 0.624738 118.703 0.649401C118.744 0.658283 118.789 0.676139 118.824 0.675056C119.068 0.663485 119.309 0.647929 119.553 0.634362C119.843 0.617688 120.137 0.604998 120.425 0.582343C120.66 0.563808 120.749 0.650412 120.937 0.652949C121.081 0.655592 121.228 0.638273 121.372 0.629939C121.663 0.613265 121.954 0.594596 122.245 0.579917C122.347 0.574678 122.427 0.558511 122.459 0.522506C122.465 0.515506 122.414 0.500665 122.382 0.491762C121.99 0.390921 121.99 0.390917 121.596 0.413829C121.353 0.428393 121.112 0.442953 120.868 0.455521C120.827 0.457617 120.78 0.449749 120.738 0.443861C120.621 0.427182 120.632 0.407196 120.732 0.371027C120.832 0.334858 120.908 0.290767 120.992 0.249644C121.113 0.275297 121.231 0.300949 121.352 0.326602C121.449 0.321377 121.546 0.315162 121.643 0.309936C122.127 0.282811 122.612 0.254685 123.097 0.229556C123.132 0.227474 123.176 0.247329 123.218 0.257208C123.336 0.285863 123.442 0.310547 123.612 0.299155C124.047 0.269157 124.485 0.247136 124.919 0.22113C125.11 0.209688 125.11 0.209689 125.446 0.270747C125.484 0.27764 125.534 0.285502 125.575 0.283406C126.013 0.259389 126.448 0.233386 126.886 0.20837C126.98 0.203152 127.071 0.215903 127.139 0.244679C127.165 0.25659 127.16 0.27656 127.273 0.439951C127.621 0.571835 127.859 0.557292 128.1 0.54473C128.203 0.539491 128.294 0.534275 128.361 0.514151C128.396 0.503088 128.44 0.487011 128.44 0.474038C128.44 0.464059 128.375 0.448246 128.334 0.44635C128.043 0.427098 127.767 0.46969 127.482 0.479364C127.35 0.483678 127.235 0.449028 127.211 0.392202C127.205 0.376249 127.196 0.359306 127.187 0.343361C127.178 0.327415 127.172 0.310465 127.163 0.294519C127.048 0.289808 126.981 0.307933 126.931 0.341984C126.89 0.370027 126.832 0.402104 126.752 0.417266C126.673 0.433426 126.564 0.430702 126.467 0.435928C126.373 0.441146 126.271 0.454368 126.182 0.447597C126.094 0.439828 126.023 0.411054 125.941 0.393291C125.903 0.384402 125.855 0.371548 125.817 0.373637C125.479 0.391424 125.144 0.409197 124.81 0.431966C124.633 0.444371 124.545 0.402677 124.433 0.377002C124.344 0.357258 124.256 0.362456 124.242 0.408397C124.205 0.518264 124.34 0.563838 124.64 0.542153C124.887 0.523589 125.11 0.520062 125.305 0.58745C125.331 0.596368 125.393 0.600208 125.431 0.598119C125.672 0.585558 125.91 0.570009 126.151 0.557447C126.195 0.555344 126.242 0.559215 126.283 0.563107C126.883 0.615538 126.883 0.616542 127.086 0.604073C127.183 0.59785 127.277 0.592631 127.267 0.440964C127.451 0.277849 127.745 0.266159 128.03 0.241515C128.215 0.226096 128.294 0.269815 128.415 0.292474C128.456 0.300358 128.501 0.316215 128.539 0.314126C129.17 0.279657 129.799 0.243195 130.428 0.204742C130.534 0.198497 130.61 0.2043 130.693 0.230047C130.799 0.262722 130.916 0.283397 131.084 0.271014C131.419 0.246249 131.76 0.230455 132.1 0.209667C132.274 0.199266 132.274 0.199255 132.624 0.260278C132.662 0.26717 132.712 0.275033 132.754 0.272937C133.094 0.255143 133.432 0.233371 133.77 0.214586C133.864 0.209368 133.949 0.22313 134.023 0.249896C134.097 0.276662 134.185 0.290417 134.276 0.285206C134.617 0.266414 134.955 0.24564 135.293 0.226855C135.334 0.224759 135.384 0.231623 135.422 0.238516C135.781 0.299517 135.781 0.299506 135.946 0.289127C136.187 0.273572 136.434 0.265994 136.672 0.245456C136.904 0.224932 137.025 0.282515 137.184 0.314064C137.619 0.290054 138.056 0.270033 138.488 0.24104C138.664 0.228636 138.759 0.261336 138.877 0.286997C138.918 0.295879 138.959 0.314742 138.997 0.313651C139.144 0.309302 139.288 0.297976 139.432 0.289642C139.576 0.281309 139.723 0.272969 139.867 0.264635C140.032 0.293175 140.141 0.36077 140.376 0.337246C140.517 0.322932 140.667 0.319573 140.811 0.31124C140.955 0.302906 141.102 0.294566 141.246 0.286233C141.343 0.281007 141.443 0.277766 141.537 0.268556C141.71 0.253165 141.796 0.301863 141.919 0.323518C141.961 0.330403 142.008 0.342256 142.046 0.340168C142.337 0.325489 142.631 0.3128 142.915 0.289154C143.136 0.270655 143.286 0.300233 143.442 0.341768C143.475 0.350671 143.53 0.355525 143.572 0.353429C143.912 0.335635 144.25 0.31385 144.588 0.295065C144.679 0.289854 144.767 0.305606 144.841 0.331374C144.918 0.358133 145.003 0.370909 145.097 0.365691C145.435 0.346906 145.776 0.326112 146.114 0.307327C146.155 0.305231 146.205 0.313095 146.243 0.320986C146.573 0.382058 146.573 0.383057 146.767 0.37061C146.814 0.367502 146.864 0.365377 146.911 0.362268C147.152 0.347711 147.402 0.342121 147.637 0.317599C147.907 0.289997 148.104 0.32345 148.296 0.379868C148.536 0.367307 148.783 0.35972 149.018 0.339189C149.194 0.323791 149.289 0.361482 149.407 0.386145C149.448 0.395027 149.492 0.412883 149.527 0.410801C149.868 0.393007 150.209 0.377214 150.544 0.351451C150.726 0.337037 150.806 0.381743 150.929 0.404396C150.971 0.412279 151.015 0.426151 151.053 0.424062C151.247 0.415607 151.441 0.403154 151.635 0.391705C151.861 0.378181 151.861 0.379178 152.161 0.439324C152.303 0.467922 152.444 0.444625 152.582 0.437303C152.729 0.428962 152.867 0.422641 152.985 0.463271C153.058 0.489039 153.147 0.504792 153.238 0.500579C153.432 0.491126 153.629 0.48167 153.82 0.466236C153.972 0.453889 154.105 0.461547 154.217 0.4982C154.296 0.523953 154.379 0.536734 154.476 0.530511C154.91 0.505502 155.348 0.47948 155.783 0.455469C155.821 0.453381 155.874 0.462237 155.91 0.471133C155.992 0.488896 156.072 0.508657 156.151 0.528423C156.342 0.518977 156.539 0.514517 156.727 0.500089C156.927 0.485631 157.109 0.480197 157.265 0.534705C157.298 0.546602 157.345 0.563444 157.383 0.562353C157.53 0.558004 157.674 0.547677 157.818 0.539344C157.962 0.53101 158.109 0.52267 158.253 0.514336C158.42 0.538878 158.527 0.610471 158.762 0.586947C158.903 0.572633 159.053 0.569275 159.197 0.560941C159.341 0.552607 159.488 0.543269 159.632 0.535934C159.679 0.533823 159.731 0.528702 159.773 0.532594C159.817 0.536478 159.855 0.55036 159.893 0.560246C160.011 0.588901 160.12 0.61758 160.288 0.600208C160.429 0.585894 160.578 0.582535 160.722 0.573203C160.919 0.561747 160.919 0.561749 161.246 0.623826C161.379 0.649451 161.528 0.615158 161.655 0.636806C161.74 0.651568 161.814 0.676332 161.896 0.693097C161.932 0.699997 161.987 0.702851 162.029 0.700755C162.223 0.691302 162.419 0.681846 162.61 0.666412C162.766 0.654058 162.895 0.665718 163.005 0.701379C163.084 0.727133 163.164 0.737923 163.263 0.731693C163.748 0.702571 164.233 0.677434 164.715 0.645325C164.879 0.633948 165.012 0.650596 165.103 0.6863C165.259 0.747794 165.479 0.67441 165.641 0.723914C165.742 0.754608 165.842 0.790293 166.024 0.77488C166.359 0.748119 166.7 0.733311 167.038 0.714527C167.158 0.741178 167.279 0.767836 167.403 0.79448C167.597 0.783031 167.791 0.771575 167.984 0.761124C168.128 0.75279 168.275 0.743453 168.419 0.736117C168.466 0.734007 168.516 0.729892 168.56 0.734775C168.605 0.739657 168.64 0.752548 168.681 0.762427C168.884 0.810834 168.884 0.811837 169.219 0.791063C169.363 0.781731 169.501 0.775408 169.622 0.815033C169.734 0.851685 169.867 0.858345 170.019 0.846996C170.307 0.826337 170.598 0.810661 170.892 0.795975C170.983 0.790764 171.068 0.807522 171.145 0.833283C171.26 0.87392 171.401 0.869586 171.545 0.858259C171.736 0.843823 171.924 0.829398 172.086 0.88489C172.119 0.896786 172.169 0.913621 172.204 0.912537C172.445 0.903967 172.689 0.897391 172.924 0.877859C173.159 0.858326 173.274 0.919918 173.436 0.949463C173.677 0.935904 173.921 0.922336 174.162 0.908777C174.209 0.905669 174.264 0.896557 174.306 0.901447C174.479 0.921982 174.58 0.996583 174.818 0.973052C174.956 0.959742 175.106 0.955391 175.25 0.952047C175.288 0.950956 175.338 0.967791 175.365 0.9807C175.379 0.98765 175.365 1.00665 175.347 1.01667C175.295 1.04474 175.23 1.07085 175.183 1.09991C175.177 1.10391 175.233 1.12173 175.266 1.12964C175.345 1.14741 175.436 1.1442 175.542 1.13596C175.633 1.12875 175.727 1.14249 175.792 1.17227C175.819 1.18418 175.81 1.20416 175.755 1.27016C175.755 1.31906 175.817 1.29695 175.837 1.26497C175.869 1.21898 175.807 1.20417 175.69 1.2294C175.608 1.24756 175.567 1.27361 175.588 1.29452C175.6 1.30547 175.655 1.31931 175.755 1.27016C176.013 1.20966 176.207 1.19821 176.401 1.18676C176.451 1.18365 176.51 1.17352 176.545 1.17942C176.672 1.20307 176.789 1.23173 176.913 1.25837C177.054 1.25204 177.186 1.23674 177.325 1.27533C177.519 1.32974 177.528 1.32473 177.716 1.3133C177.813 1.30707 177.91 1.30186 178.007 1.29663C178.104 1.29141 178.18 1.30618 178.266 1.32893C178.44 1.37541 178.454 1.37537 178.568 1.31122C178.636 1.27214 178.683 1.25906 178.768 1.27681C179.051 1.337 179.054 1.34098 179.295 1.32243C179.494 1.30698 179.682 1.30253 179.83 1.35906C179.93 1.39873 179.962 1.38967 180.041 1.34756C180.252 1.23628 180.349 1.23803 180.747 1.31691C180.932 1.35438 181.123 1.313 181.311 1.30755C181.47 1.30318 181.582 1.32685 181.594 1.38969C181.603 1.42859 181.63 1.45648 181.736 1.46919C181.777 1.47408 181.827 1.48094 181.868 1.47885C182.112 1.46628 182.353 1.45172 182.597 1.43715C182.72 1.42987 182.787 1.38281 182.763 1.32099C182.736 1.25519 182.783 1.23112 182.959 1.21173C183.065 1.2005 183.15 1.20229 183.236 1.22005C183.33 1.23978 183.304 1.25781 183.222 1.29393C183.025 1.38223 183.049 1.43605 183.303 1.49631C183.391 1.51706 183.462 1.53585 183.483 1.56674C183.494 1.58268 183.483 1.60366 183.509 1.61557C183.654 1.68209 183.854 1.72452 184.078 1.75591C184.292 1.72844 184.44 1.77298 184.605 1.80851C184.734 1.83614 184.887 1.81182 185.025 1.80151C185.181 1.79015 185.31 1.79782 185.422 1.83447C185.502 1.86022 185.584 1.87199 185.681 1.86677C185.875 1.85532 186.072 1.84786 186.263 1.83143C186.427 1.81705 186.551 1.83672 186.654 1.8704C186.784 1.91299 186.927 1.8837 187.063 1.88936C187.245 1.8959 187.337 1.98449 187.575 1.95996C187.716 1.94565 187.863 1.9403 188.01 1.93595C188.048 1.93486 188.095 1.95172 188.127 1.96361C188.284 2.01812 188.466 2.01468 188.666 1.99823C188.804 1.98692 188.939 1.97661 189.074 2.01421C189.298 2.07753 189.546 2.13282 189.781 2.19113C189.814 2.23695 189.791 2.29089 189.959 2.31743C190.047 2.33119 190.13 2.35195 190.197 2.37474C190.28 2.40148 190.356 2.40828 190.462 2.40104C190.653 2.38661 190.853 2.38312 191.041 2.3647C191.214 2.34831 191.323 2.38099 191.429 2.41166C191.515 2.43641 191.594 2.44818 191.697 2.42997C191.803 2.41275 191.879 2.42353 191.965 2.45027C192.086 2.4869 192.094 2.4829 192.494 2.4929C192.535 2.4938 192.585 2.50864 192.609 2.52156C192.621 2.52851 192.595 2.54855 192.574 2.55858C192.548 2.57062 192.507 2.58468 192.469 2.58777C192.034 2.61477 191.596 2.63879 191.161 2.66579C191.117 2.66889 191.07 2.676 191.038 2.68606C191.003 2.69712 190.959 2.71219 190.959 2.72616C190.959 2.73614 191.018 2.74798 191.059 2.75486C191.189 2.7775 191.341 2.7422 191.468 2.76784C191.553 2.7846 191.624 2.80837 191.709 2.82413C191.745 2.83103 191.801 2.8299 191.845 2.8278C191.992 2.82046 192.135 2.81013 192.282 2.80378C192.324 2.80269 192.371 2.81255 192.409 2.82045C192.692 2.87964 192.692 2.87963 192.935 2.86607C193.032 2.86084 193.135 2.84562 193.226 2.85139C193.315 2.85716 193.391 2.88392 193.471 2.90069C193.636 2.93622 193.792 2.97077 193.804 3.04858C193.81 3.0785 193.908 3.10421 194.005 3.10597C194.099 3.10773 194.198 3.09652 194.295 3.0903C194.525 3.07777 194.525 3.07777 194.822 3.13792C194.904 3.15469 194.993 3.15646 195.098 3.14623C195.14 3.14213 195.19 3.14601 195.234 3.15089C195.378 3.16551 195.378 3.18447 195.284 3.22062C195.152 3.27384 195.164 3.2788 195.535 3.32281C195.676 3.33943 195.785 3.3711 195.903 3.39876C196.095 3.4432 196.092 3.4432 195.966 3.50239C195.936 3.51543 195.91 3.52947 195.881 3.54351C195.796 3.58264 195.729 3.62471 195.552 3.62913C195.358 3.6336 195.165 3.65004 194.971 3.66149C194.783 3.67293 194.733 3.69699 194.751 3.76481C194.772 3.84659 194.811 3.85548 195.149 3.85366C195.246 3.85342 195.331 3.8612 195.405 3.88796C195.37 3.91998 195.305 3.94509 195.211 3.95131C194.97 3.96686 194.726 3.98043 194.486 3.99399C194.292 4.00544 194.098 4.01688 193.904 4.02833C193.783 4.03561 193.707 4.0877 193.74 4.1455C193.758 4.17839 193.773 4.21128 193.788 4.24418C193.821 4.30997 193.883 4.32679 194.08 4.32331C194.13 4.32219 194.177 4.31409 194.224 4.31597C194.415 4.32249 194.507 4.4051 194.736 4.38758C194.927 4.37314 195.127 4.36966 195.315 4.35124C195.488 4.33485 195.585 4.37055 195.706 4.3972C195.747 4.40609 195.792 4.42493 195.827 4.42385C196.071 4.41227 196.315 4.40071 196.552 4.38117C196.664 4.37292 196.732 4.37874 196.82 4.40248C197.032 4.45984 197.038 4.45683 197.352 4.4381C197.582 4.42358 197.585 4.42556 197.879 4.48572C197.962 4.50249 198.05 4.50227 198.155 4.49403C198.294 4.48372 198.437 4.4674 198.582 4.48202C198.626 4.4859 198.682 4.49775 198.696 4.51068C198.705 4.51964 198.664 4.5417 198.629 4.54877C198.371 4.60129 198.068 4.59305 197.786 4.61469C197.698 4.62089 197.61 4.60214 197.536 4.57538C197.459 4.54862 197.377 4.53785 197.277 4.54308C197.083 4.55453 196.886 4.56199 196.695 4.57842C196.531 4.59279 196.416 4.57012 196.301 4.53946C196.263 4.52957 196.218 4.51072 196.18 4.51181C195.745 4.53282 195.308 4.55385 194.876 4.58284C194.702 4.59524 194.602 4.56355 194.484 4.53689C194.443 4.52801 194.402 4.50915 194.364 4.51024C194.217 4.51459 194.073 4.52592 193.926 4.53426C193.391 4.5655 192.859 4.59673 192.325 4.62597C192.289 4.62805 192.245 4.6072 192.204 4.59832C192.124 4.58055 192.042 4.56378 191.959 4.54702C191.813 4.55536 191.669 4.56569 191.522 4.57203C191.416 4.57628 191.322 4.59049 191.308 4.62844C191.299 4.65341 191.396 4.67613 191.499 4.67388C191.599 4.67164 191.699 4.65942 191.781 4.6722C192.19 4.73507 192.19 4.73607 192.446 4.72248C192.669 4.70996 192.646 4.70003 192.843 4.75444C192.929 4.77818 193.005 4.79197 193.102 4.78575C193.343 4.77119 193.587 4.75663 193.831 4.74406C193.869 4.74197 193.919 4.75183 193.957 4.75972C194.246 4.8189 194.246 4.82089 194.484 4.80534C194.795 4.78662 194.807 4.78161 195.016 4.84197C195.161 4.88354 195.293 4.85427 195.431 4.85194C195.59 4.89048 195.764 4.92499 195.908 4.96855C196.079 5.02003 196.258 5.0106 196.452 4.99516C196.596 4.98383 196.737 4.9795 196.855 5.02013C196.967 5.05778 197.102 5.06145 197.255 5.0511C197.393 5.04178 197.534 5.02247 197.678 5.04407C197.716 5.04997 197.775 5.0648 197.772 5.07379C197.77 5.08777 197.732 5.10782 197.693 5.1139C197.423 5.15547 197.126 5.15519 196.842 5.17485C196.803 5.17794 196.753 5.16708 196.715 5.15919C196.633 5.14142 196.553 5.12066 196.473 5.1019C196.329 5.10823 196.183 5.11058 196.042 5.1229C195.933 5.13215 195.851 5.13136 195.771 5.1076C195.697 5.08582 195.618 5.05906 195.529 5.05229C195.441 5.04552 195.338 5.06074 195.242 5.06697C195.145 5.07319 195.033 5.07046 194.957 5.08661C194.88 5.10277 194.834 5.13781 194.784 5.16588C194.728 5.19695 194.652 5.20712 194.54 5.21039C194.437 5.21363 194.355 5.20984 194.278 5.18208C194.246 5.17018 194.202 5.1613 194.158 5.15343C194.116 5.14654 194.069 5.13568 194.031 5.13776C193.593 5.16178 193.158 5.1878 192.721 5.21281C192.503 5.22532 192.506 5.2253 192.053 5.16752C192.012 5.16263 191.962 5.15577 191.921 5.15787C191.677 5.17043 191.436 5.18499 191.192 5.19956C190.945 5.21413 190.948 5.21213 190.527 5.15028C190.451 5.13849 190.339 5.15473 190.248 5.15295C190.057 5.14843 189.962 5.06483 189.739 5.08134C189.548 5.09578 189.348 5.09926 189.157 5.11768C188.984 5.13407 188.884 5.09939 188.766 5.07273C188.725 5.06385 188.68 5.044 188.645 5.04608C188.207 5.0691 187.773 5.0951 187.191 5.09951C187.047 5.09986 187.111 5.12066 187.206 5.12742C187.341 5.13807 187.385 5.11701 187.311 5.07727C187.258 5.04945 187.181 5.03566 187.12 5.04279C187.087 5.04686 187.046 5.06593 187.191 5.09951C187.344 5.13706 187.335 5.15804 187.362 5.16995C187.427 5.19873 187.518 5.21048 187.612 5.20626C187.759 5.19892 187.903 5.18859 188.05 5.18225C188.091 5.18015 188.141 5.18702 188.179 5.19491C188.503 5.25599 188.506 5.25998 188.85 5.2352C188.958 5.22795 189.038 5.22775 189.123 5.24651C189.241 5.27217 189.327 5.31586 189.506 5.30146C189.744 5.28192 189.988 5.27036 190.231 5.25879C190.27 5.2567 190.311 5.27456 190.355 5.28243C190.476 5.30609 190.564 5.35079 190.743 5.33139C190.882 5.31608 191.031 5.31172 191.178 5.30837C191.217 5.30728 191.275 5.3231 191.293 5.33603C191.329 5.3589 191.285 5.38596 191.185 5.40516C191.144 5.41325 191.088 5.41138 191.041 5.41449C190.847 5.42594 190.653 5.43838 190.459 5.44784C190.357 5.45307 190.26 5.46829 190.248 5.50524C190.24 5.53021 190.346 5.5519 190.446 5.54966C190.592 5.54631 190.739 5.53797 190.88 5.52466C191.13 5.50209 191.348 5.50755 191.551 5.56993C191.695 5.61349 191.686 5.59755 191.84 5.72691C191.879 5.75975 191.994 5.76246 192.094 5.76022C192.335 5.75465 192.446 5.76935 192.426 5.80033C192.4 5.83832 192.315 5.8505 192.206 5.85575C192.012 5.86421 191.818 5.87766 191.624 5.88911C191.577 5.89221 191.524 5.89833 191.48 5.89644C191.436 5.89455 191.395 5.88267 191.357 5.87379C191.274 5.85502 191.203 5.82625 191.115 5.81948C191.027 5.81271 190.924 5.82793 190.827 5.83415C190.73 5.83938 190.628 5.8546 190.539 5.84783C190.451 5.84106 190.377 5.8113 190.298 5.79353C190.259 5.78464 190.212 5.77078 190.174 5.77187C189.98 5.78032 189.786 5.79377 189.592 5.80423C189.354 5.81778 189.354 5.81778 189.066 5.75661C188.983 5.73884 188.898 5.74005 188.789 5.7483C188.554 5.76484 188.551 5.76184 188.122 5.70501C188.081 5.69912 188.031 5.69226 187.989 5.69535C187.552 5.71937 187.117 5.74537 186.682 5.77038C186.309 5.79225 186.309 5.79225 186.104 5.89255C185.952 5.96677 185.949 5.96677 186.099 6.00034C186.22 6.02799 186.329 6.06863 186.461 6.08328C186.585 6.09695 186.737 6.05168 186.873 6.09725C186.941 6.12004 187.029 6.14478 187.114 6.14856C187.25 6.15322 187.394 6.12393 187.523 6.16752C187.588 6.18932 187.685 6.21205 187.768 6.21284C187.912 6.21449 188.058 6.19816 188.202 6.19082C188.247 6.18872 188.296 6.1886 188.338 6.19349C188.382 6.19937 188.42 6.21126 188.458 6.22114C188.576 6.25479 188.703 6.27044 188.856 6.2531C189.105 6.22456 189.329 6.23798 189.523 6.30138C189.55 6.3103 189.614 6.31114 189.656 6.30705C189.761 6.29682 189.852 6.29559 189.932 6.31436C189.964 6.32226 190.011 6.33612 190.006 6.34511C189.997 6.3601 189.962 6.38015 189.924 6.38523C189.648 6.41983 189.351 6.42455 189.066 6.44321C189.028 6.4453 188.981 6.43243 188.942 6.42354C188.86 6.40578 188.789 6.37602 188.701 6.36925C188.613 6.36248 188.51 6.3757 188.413 6.38092C188.316 6.38615 188.213 6.40137 188.125 6.3956C188.037 6.38883 187.954 6.36407 187.883 6.34229C187.801 6.31754 187.721 6.31475 187.613 6.32499C187.472 6.33831 187.325 6.34066 187.181 6.34799C187.101 6.32923 187.022 6.30845 186.939 6.29069C186.901 6.2818 186.854 6.27095 186.813 6.27204C186.619 6.2805 186.425 6.29294 186.231 6.30439C186.037 6.31584 186.037 6.31585 185.707 6.25478C185.669 6.24788 185.619 6.24002 185.578 6.24212C185.334 6.25469 185.093 6.27023 184.849 6.2828C184.755 6.28802 184.67 6.27425 184.593 6.2475C184.52 6.22073 184.431 6.20598 184.34 6.21119C183.952 6.23309 183.564 6.25399 183.177 6.27988C183.021 6.29024 182.889 6.28158 182.782 6.24592C182.659 6.2053 182.521 6.21562 182.377 6.22395C182.051 6.2447 182.048 6.24371 181.838 6.19332C181.797 6.18344 181.756 6.16457 181.718 6.16567C181.38 6.18146 181.039 6.19626 180.704 6.22102C180.528 6.23443 180.433 6.19973 180.316 6.17407C180.274 6.16519 180.23 6.14633 180.195 6.14841C179.951 6.15998 179.707 6.17056 179.469 6.1911C179.231 6.21164 179.139 6.11905 178.96 6.12048C178.716 6.12208 178.475 6.14562 178.234 6.16017C178.04 6.17162 177.847 6.18307 177.653 6.19451C177.459 6.20596 177.265 6.21541 177.071 6.22886C176.968 6.23609 176.892 6.2273 176.806 6.20255C176.697 6.16989 176.568 6.14426 176.45 6.11461C176.27 6.07214 176.27 6.07213 176.053 6.08463C176.006 6.08774 175.956 6.08986 175.909 6.09296C175.553 6.11578 175.553 6.11379 175.1 6.05202C175.079 6.04908 175.027 6.06019 175.006 6.06822C174.945 6.09432 174.889 6.12239 174.833 6.14947C174.754 6.1337 174.657 6.12495 174.604 6.10213C174.453 6.03763 174.219 6.12701 174.065 6.06352C174.009 6.0397 173.912 6.01898 173.824 6.01321C173.733 6.00744 173.63 6.02166 173.536 6.02788C173.292 6.04344 173.292 6.04245 173.084 6.13177C172.979 6.17594 172.826 6.16832 172.688 6.17864C172.544 6.18997 172.406 6.19629 172.285 6.15567C172.176 6.11901 172.043 6.11035 171.888 6.1227C171.697 6.13814 171.5 6.14759 171.306 6.15705C171.265 6.15914 171.215 6.15428 171.174 6.14839C170.723 6.09061 170.723 6.08961 170.506 6.10311C170.409 6.10934 170.309 6.11157 170.215 6.12078C170.057 6.13713 169.936 6.11647 169.821 6.08481C169.783 6.07492 169.738 6.05608 169.7 6.05717C169.506 6.06263 169.315 6.07208 169.124 6.08152C168.977 6.08887 168.83 6.09321 168.689 6.10753C168.454 6.13105 168.339 6.06646 168.177 6.03691C167.936 6.05047 167.693 6.06005 167.452 6.0786C167.34 6.08685 167.267 6.08404 167.181 6.0603C167.072 6.03062 166.972 5.99694 166.796 6.01234C166.561 6.03287 166.314 6.04045 166.073 6.05301C165.911 6.02247 165.793 5.95988 165.561 5.9834C165.42 5.99771 165.27 6.00107 165.126 6.0094C164.932 6.02085 164.738 6.03131 164.544 6.04376C164.336 6.05624 164.339 6.05324 164.018 5.99514C163.832 5.96066 163.641 6.00004 163.453 6.00649C163.306 6.01183 163.233 6.05792 163.269 6.11671C163.305 6.1755 163.226 6.2216 163.091 6.22991C162.753 6.2497 162.412 6.27048 162.074 6.28826C162.033 6.29036 161.983 6.2835 161.945 6.2766C161.583 6.21461 161.583 6.21562 161.421 6.22499C161.18 6.24055 160.933 6.24913 160.695 6.26867C160.531 6.28204 160.41 6.26138 160.304 6.22771C160.222 6.20196 160.145 6.19616 160.039 6.20241C158.876 6.2721 157.712 6.3368 156.552 6.40848C156.379 6.41888 156.279 6.39019 156.161 6.36353C156.119 6.35465 156.081 6.33577 156.04 6.33587C155.943 6.33611 155.846 6.34533 155.749 6.35155C155.314 6.37656 154.879 6.40656 154.442 6.42558C154.257 6.43402 154.207 6.48005 154.128 6.51816C154.066 6.54725 153.996 6.5594 153.887 6.56365C153.781 6.5679 153.705 6.5631 153.622 6.53735C153.516 6.50368 153.396 6.48301 153.231 6.49738C153.04 6.51381 152.846 6.52128 152.649 6.53273C152.55 6.53797 152.473 6.55611 152.441 6.59212C152.435 6.59812 152.497 6.61294 152.533 6.62184C152.65 6.65149 152.762 6.68615 152.895 6.70678C153.03 6.72741 153.177 6.70309 153.318 6.69676C153.368 6.69464 153.415 6.68855 153.462 6.68943C153.506 6.69032 153.559 6.69519 153.592 6.70409C153.745 6.74862 153.907 6.77917 154.118 6.75171C154.3 6.76424 154.395 6.84684 154.627 6.82432C154.768 6.811 154.915 6.80466 155.062 6.79931C155.1 6.79822 155.142 6.81608 155.183 6.82497C155.301 6.84963 155.395 6.88932 155.571 6.87192C155.759 6.8535 155.959 6.85003 156.15 6.83559C156.256 6.82735 156.332 6.83415 156.415 6.85989C156.521 6.89257 156.642 6.91722 156.806 6.90085C156.947 6.88654 157.097 6.88318 157.241 6.87385C157.429 6.86241 157.429 6.86341 157.765 6.92447C157.803 6.93136 157.853 6.93922 157.894 6.93713C158.138 6.92456 158.379 6.909 158.623 6.89643C158.717 6.89122 158.808 6.90397 158.873 6.93275C158.899 6.94466 158.891 6.96465 158.9 6.9816C158.415 7.00972 157.93 7.03385 157.448 7.06795C157.266 7.08137 157.184 7.04065 157.063 7.01799C157.022 7.01011 156.977 6.99325 156.939 6.99534C156.598 7.01314 156.261 7.03191 155.923 7.05469C155.817 7.06193 155.738 7.05813 155.658 7.02939C155.454 6.95304 155.208 6.99555 154.979 7.00709C154.802 7.0155 154.747 7.04658 154.768 7.11239C154.795 7.19017 154.901 7.21386 155.171 7.19923C155.268 7.19401 155.365 7.18678 155.462 7.18255C155.556 7.17833 155.642 7.1911 155.718 7.21786C155.792 7.24462 155.88 7.25838 155.971 7.25417C156.165 7.24471 156.362 7.23526 156.55 7.21983C156.706 7.20748 156.835 7.21714 156.944 7.2538C157.065 7.29442 157.206 7.2851 157.347 7.27577C157.676 7.25501 157.679 7.25601 157.886 7.30541C157.927 7.31528 157.968 7.33415 158.006 7.33306C158.344 7.31727 158.685 7.30346 159.017 7.2787C159.19 7.26631 159.291 7.298 159.405 7.32366C159.447 7.33254 159.488 7.35241 159.526 7.35032C159.77 7.33875 160.014 7.32717 160.252 7.30763C160.363 7.29838 160.431 7.3042 160.522 7.32793C160.74 7.38628 160.746 7.38427 161.055 7.36456C161.149 7.35834 161.252 7.34712 161.34 7.35489C161.428 7.36265 161.499 7.39143 161.581 7.40919C161.62 7.41708 161.667 7.42794 161.708 7.42584C161.902 7.41739 162.096 7.40495 162.29 7.3935C162.472 7.38208 162.472 7.38308 162.813 7.44412C162.952 7.46973 163.096 7.44742 163.234 7.4391C163.383 7.42976 163.519 7.42943 163.634 7.46807C163.749 7.50672 163.887 7.50438 164.034 7.49603C164.172 7.48772 164.313 7.46543 164.454 7.49203C164.778 7.55312 164.778 7.5541 164.978 7.54164C165.268 7.52397 165.556 7.5073 165.85 7.49162C165.888 7.48953 165.938 7.50139 165.977 7.50928C166.059 7.52704 166.13 7.5568 166.218 7.56357C166.307 7.57134 166.409 7.55912 166.503 7.5529C166.806 7.53321 166.826 7.52617 167.03 7.59154C167.201 7.64502 167.412 7.56667 167.571 7.62815C167.662 7.66286 167.786 7.6905 167.956 7.67312C168.097 7.6588 168.244 7.65445 168.391 7.64611C168.623 7.63257 168.623 7.63358 168.918 7.69275C168.956 7.70064 169.006 7.71049 169.044 7.7084C169.238 7.69994 169.435 7.69248 169.623 7.67406C169.843 7.65257 169.985 7.69015 170.15 7.72668C170.279 7.7553 170.432 7.73097 170.57 7.72066C170.72 7.71031 170.855 7.71297 170.967 7.75162C171.085 7.79126 171.223 7.78593 171.37 7.77759C171.508 7.77027 171.649 7.74697 171.79 7.77457C172.094 7.83571 172.094 7.83571 172.314 7.8232C172.508 7.81175 172.702 7.79931 172.896 7.79085C172.934 7.78876 172.981 7.80162 173.019 7.81051C173.102 7.82827 173.173 7.85804 173.261 7.86481C173.349 7.87158 173.452 7.85836 173.549 7.85314C173.646 7.84791 173.749 7.83269 173.837 7.83846C173.925 7.84424 174.008 7.86899 174.078 7.89077C174.161 7.91652 174.237 7.91932 174.349 7.90907C174.49 7.89575 174.637 7.8924 174.781 7.88507C174.86 7.90383 174.943 7.92259 175.019 7.94336C175.099 7.96513 175.184 7.96292 175.293 7.95567C175.654 7.93084 175.657 7.93383 175.96 7.99497C176.099 8.02258 176.243 7.99927 176.381 7.99195C176.528 7.98361 176.666 7.97928 176.781 8.01892C176.893 8.05657 177.031 8.06122 177.178 8.04889C177.272 8.04068 177.372 8.03545 177.469 8.03222C177.513 8.03112 177.566 8.03498 177.598 8.04289C177.754 8.08442 177.908 8.12197 178.122 8.09451C178.31 8.10203 178.405 8.18364 178.631 8.16712C178.822 8.15268 179.022 8.14919 179.21 8.13077C179.383 8.11438 179.507 8.14204 179.595 8.17675C179.755 8.23824 179.977 8.15387 180.136 8.21436C180.228 8.24906 180.346 8.27672 180.522 8.26132C180.716 8.24488 180.778 8.26568 180.834 8.32842C180.867 8.36426 180.861 8.39322 180.803 8.42131C180.744 8.45039 180.679 8.44556 180.585 8.41286C180.476 8.3762 180.347 8.36952 180.191 8.37788C180.038 8.38624 179.944 8.33458 179.817 8.31493C179.69 8.29428 179.541 8.32957 179.408 8.30295C179.096 8.24084 179.096 8.24083 178.885 8.25332C178.741 8.26166 178.591 8.26602 178.45 8.28033C178.282 8.2977 178.173 8.26703 178.058 8.23936C178.017 8.22948 177.976 8.21062 177.941 8.2117C177.603 8.22749 177.262 8.2423 176.927 8.26806C176.751 8.28146 176.656 8.24577 176.539 8.2211C176.497 8.21222 176.453 8.19437 176.418 8.19645C176.127 8.21113 175.839 8.22979 175.548 8.24746C175.493 8.27454 175.431 8.30063 175.378 8.3297C175.323 8.35978 175.247 8.37294 175.135 8.37221C174.95 8.37266 174.768 8.41502 174.582 8.36258C174.391 8.30916 174.376 8.31219 174.191 8.32561C173.956 8.34315 173.706 8.33976 173.486 8.37922C173.448 8.3863 173.407 8.40535 173.407 8.41932C173.404 8.42831 173.466 8.44114 173.504 8.44903C173.634 8.47266 173.783 8.43737 173.913 8.46201C173.998 8.47777 174.069 8.50154 174.154 8.5183C174.19 8.5252 174.243 8.52408 174.29 8.52296C174.34 8.52185 174.386 8.51475 174.434 8.51564C174.478 8.51653 174.525 8.52239 174.56 8.53129C174.722 8.56881 174.893 8.60333 175.037 8.64789C175.179 8.69146 175.311 8.6612 175.452 8.65886C176.017 8.72734 176.017 8.72834 176.396 8.70546C176.49 8.70024 176.587 8.69402 176.684 8.69479C176.725 8.69469 176.763 8.71255 176.805 8.72243C176.922 8.75208 177.034 8.77876 177.199 8.76239C177.34 8.74807 177.49 8.74471 177.634 8.73538C177.828 8.72393 177.828 8.72394 178.157 8.78601C178.24 8.80177 178.328 8.79957 178.434 8.79133C178.525 8.78412 178.619 8.79886 178.684 8.82764C178.71 8.83956 178.702 8.85953 178.711 8.87648C178.42 8.89315 178.126 8.90485 177.844 8.92948C177.662 8.94489 177.579 8.90218 177.458 8.87952C177.417 8.87164 177.373 8.85478 177.335 8.85687C177.047 8.87254 176.759 8.8902 176.471 8.91085C176.436 8.91294 176.392 8.936 176.389 8.94998C176.384 8.97594 176.457 9.00071 176.563 8.99945C176.704 8.99811 176.842 8.98081 176.969 9.02142C177.075 9.05709 177.207 9.07274 177.363 9.0564C177.457 9.04719 177.557 9.04694 177.651 9.03873C177.901 9.01417 178.127 9.01861 178.316 9.08601C178.46 9.10362 178.601 9.08632 178.739 9.077C178.842 9.06977 178.942 9.06253 179.015 9.08131C179.171 9.12085 179.325 9.1604 179.539 9.13294C179.771 9.16031 179.948 9.21876 180.143 9.26619C180.234 9.28892 180.305 9.30173 180.41 9.28651C180.454 9.28041 180.507 9.28027 180.554 9.27716C180.651 9.27194 180.754 9.25672 180.842 9.26249C180.93 9.26926 181.004 9.29803 181.084 9.3158C181.122 9.32469 181.166 9.33955 181.204 9.33846C181.351 9.33311 181.495 9.32278 181.639 9.31445C181.783 9.30711 181.927 9.29978 182.071 9.29245C182.192 9.3181 182.316 9.34375 182.436 9.3694C182.63 9.35795 182.824 9.3465 183.015 9.33605C183.23 9.32356 183.23 9.32455 183.539 9.38568C183.677 9.41328 183.824 9.39496 183.956 9.38167C184.176 9.36017 184.324 9.39774 184.48 9.43728C184.512 9.44519 184.571 9.45003 184.609 9.44595C184.762 9.4316 184.894 9.44226 185.006 9.47891C185.086 9.50466 185.165 9.51645 185.262 9.51123C185.6 9.49145 185.938 9.47066 186.276 9.45287C186.317 9.45078 186.364 9.45965 186.403 9.46754C186.703 9.52768 186.706 9.53067 186.926 9.51416C187.123 9.49971 187.305 9.49328 187.461 9.54779C187.494 9.55969 187.544 9.57653 187.579 9.57545C187.82 9.56488 188.064 9.55331 188.302 9.53577C188.411 9.52752 188.487 9.53033 188.573 9.55308C188.682 9.58176 188.779 9.61645 188.958 9.60304C189.455 9.56491 189.458 9.57088 190.046 9.63831C190.087 9.6432 190.143 9.63508 190.19 9.63098C190.29 9.62075 190.363 9.63455 190.452 9.65729C190.649 9.7087 190.655 9.70569 190.843 9.69426C190.987 9.68493 191.137 9.68257 191.278 9.66725C191.495 9.64477 191.64 9.68334 191.802 9.71987C191.931 9.7485 192.081 9.72418 192.219 9.71486C192.369 9.70452 192.504 9.70718 192.616 9.74483C192.693 9.77059 192.775 9.78437 192.872 9.77915C193.21 9.76036 193.548 9.73957 193.886 9.72079C193.927 9.71869 193.977 9.72656 194.015 9.73345C194.351 9.79451 194.351 9.7975 194.683 9.77374C194.789 9.7665 194.877 9.76429 194.956 9.78506C195.033 9.80483 195.115 9.82359 195.195 9.84235C195.339 9.83502 195.486 9.83267 195.627 9.82035C195.735 9.8111 195.812 9.81491 195.897 9.83566C196.009 9.86234 196.104 9.909 196.28 9.88562C196.371 9.87442 196.477 9.87716 196.568 9.86696C196.676 9.85372 196.75 9.86152 196.836 9.88726C196.942 9.91794 197.051 9.94961 197.221 9.93323C197.409 9.91481 197.609 9.91133 197.8 9.8969C197.905 9.88865 197.979 9.89646 198.065 9.9222C198.171 9.95487 198.291 9.97554 198.456 9.96217C198.791 9.93641 198.794 9.94138 199.12 10.0035C199.203 10.0192 199.291 10.017 199.397 10.0088C199.488 10.0016 199.582 10.0163 199.647 10.0451C199.709 10.0769 199.703 10.0968 199.709 10.1138ZM173.438 1.177C173.341 1.18222 173.244 1.18845 173.102 1.10197C173.093 1.08702 173.099 1.06905 173.078 1.05612C173.031 1.02929 172.957 1.01051 172.869 1.00773C172.71 1.00413 172.52 1.03851 172.523 1.06445C172.526 1.0864 172.576 1.10524 172.673 1.12297C172.714 1.12985 172.747 1.14175 172.785 1.14964C172.897 1.17232 172.986 1.21702 173.147 1.19368C173.117 1.13187 173.132 1.16278 173.147 1.19368C173.133 1.23163 173.177 1.25847 173.283 1.26919C173.312 1.27211 173.356 1.27001 173.38 1.26396C173.471 1.24179 173.485 1.21182 173.417 1.13314C173.405 1.14615 173.414 1.16907 173.441 1.17499C173.467 1.18092 173.532 1.17578 173.564 1.16871C173.646 1.14955 173.687 1.1245 173.667 1.10359C173.655 1.09264 173.599 1.07881 173.563 1.07889C173.502 1.07904 173.446 1.10113 173.438 1.177ZM197.307 12.6924C197.092 12.7119 196.845 12.7055 196.631 12.7449C196.593 12.752 196.555 12.7701 196.552 12.7841C196.549 12.793 196.608 12.8059 196.643 12.8128C196.723 12.8286 196.811 12.8233 196.914 12.8181C197.07 12.8107 197.161 12.8564 197.282 12.8791C197.32 12.886 197.37 12.8908 197.411 12.8887C197.649 12.8762 197.884 12.8627 198.122 12.8481C198.163 12.845 198.207 12.8379 198.243 12.8288C198.36 12.7996 198.348 12.7807 198.233 12.759C198.107 12.7354 198.006 12.6957 197.877 12.677C197.691 12.6506 197.504 12.6869 197.307 12.6924ZM180.62 13.4615C180.476 13.4698 180.335 13.4781 180.191 13.4865C180.144 13.4896 180.094 13.4907 180.05 13.4948C179.959 13.502 179.892 13.5231 179.848 13.5562C179.916 13.582 179.998 13.5967 180.089 13.5935C180.233 13.5872 180.374 13.5739 180.518 13.5705C180.674 13.5661 180.765 13.6108 180.886 13.6335C180.924 13.6404 180.971 13.6413 181.016 13.6422C181.233 13.6456 181.365 13.5934 181.323 13.5207C181.293 13.4638 181.181 13.4302 181.046 13.4375C180.905 13.4448 180.761 13.4532 180.62 13.4615ZM198.299 11.215C198.334 11.1979 198.372 11.1859 198.39 11.1709C198.442 11.1198 198.421 11.082 198.324 11.0423C198.206 10.9937 198.062 11.027 197.93 11.0323C197.898 11.0333 197.863 11.0544 197.845 11.0674C197.833 11.0764 197.834 11.0954 197.851 11.1003C197.996 11.1399 198.149 11.1764 198.299 11.215ZM172.774 8.32905C172.633 8.33738 172.489 8.34372 172.348 8.35504C172.313 8.35812 172.281 8.37715 172.26 8.39018C172.222 8.41422 172.264 8.44705 172.384 8.44975C172.522 8.45341 172.666 8.4361 172.81 8.42776C172.992 8.41734 173.101 8.38015 173.033 8.34838C172.968 8.3176 172.88 8.31183 172.774 8.32905ZM18.0276 6.57258C18.1216 6.56736 18.2185 6.56313 18.3125 6.55591C18.4007 6.54871 18.4681 6.52659 18.5119 6.49356C18.4382 6.46779 18.3558 6.45402 18.2647 6.45723C18.1207 6.46357 17.9797 6.4719 17.8387 6.48222C17.7505 6.48842 17.6655 6.51058 17.6452 6.54456C17.6249 6.57056 17.8219 6.58505 18.0276 6.57258ZM160.323 6.07297C160.362 6.08186 160.4 6.09973 160.438 6.09964C160.532 6.09941 160.629 6.09319 160.717 6.08299C160.756 6.07891 160.785 6.06087 160.802 6.04686C160.814 6.03785 160.811 6.02189 160.793 6.01395C160.708 5.96626 160.367 5.98405 160.311 6.03907C160.306 6.04907 160.32 6.062 160.323 6.07297ZM151.002 0.63076C151.011 0.646706 151.014 0.662664 151.026 0.678602C151.05 0.708484 151.115 0.730286 151.209 0.745026C151.282 0.719899 151.32 0.691868 151.317 0.661937C151.314 0.645977 151.305 0.630021 151.293 0.614082C151.269 0.584201 151.204 0.562411 151.11 0.54767C151.037 0.5718 151.002 0.599824 151.002 0.63076ZM205.113 13.5756C205.086 13.5886 205.06 13.6017 205.031 13.6137C205.11 13.6425 205.184 13.6513 205.24 13.6352C205.275 13.6251 205.295 13.6101 205.322 13.597C205.242 13.5683 205.171 13.5605 205.113 13.5756ZM203.286 13.7158C203.324 13.7246 203.359 13.7365 203.401 13.7424C203.468 13.7522 203.53 13.7351 203.577 13.6991C203.538 13.6902 203.503 13.6783 203.462 13.6724C203.394 13.6626 203.332 13.6797 203.286 13.7158ZM204.442 13.5303C204.422 13.5543 204.463 13.5742 204.572 13.5909C204.598 13.5778 204.634 13.5658 204.651 13.5518C204.68 13.5287 204.63 13.5079 204.524 13.4922C204.495 13.5042 204.469 13.5173 204.442 13.5303ZM198.228 12.4696C198.207 12.4936 198.249 12.5135 198.358 12.5302C198.384 12.5171 198.419 12.5051 198.437 12.4911C198.466 12.468 198.416 12.4472 198.31 12.4315C198.28 12.4435 198.254 12.4566 198.228 12.4696ZM189.713 5.4287C189.686 5.44173 189.66 5.45477 189.631 5.46682C189.71 5.49557 189.784 5.50437 189.839 5.48826C189.875 5.4782 189.895 5.46318 189.921 5.45014C189.842 5.42139 189.771 5.41358 189.713 5.4287ZM181.582 1.70209C181.652 1.7089 181.711 1.69479 181.761 1.65775C181.723 1.64886 181.687 1.63697 181.646 1.63108C181.578 1.62126 181.517 1.63838 181.47 1.67443C181.508 1.68431 181.547 1.69319 181.582 1.70209ZM177.28 1.47803C177.253 1.49106 177.227 1.5041 177.198 1.51615C177.277 1.5449 177.351 1.5537 177.406 1.53759C177.442 1.52753 177.462 1.51251 177.488 1.49947C177.409 1.47072 177.338 1.46391 177.28 1.47803ZM148.11 0.636792C148.083 0.64983 148.057 0.662868 148.028 0.674915C148.107 0.703662 148.181 0.712462 148.237 0.696359C148.272 0.686294 148.292 0.671275 148.319 0.658237C148.239 0.629489 148.168 0.622678 148.11 0.636792ZM2.97596 9.10907C2.93767 9.10018 2.89942 9.0913 2.86406 9.08141C2.77905 9.10856 2.75282 9.13357 2.80001 9.15241C2.82951 9.16432 2.87363 9.1712 2.91192 9.18009C2.99987 9.15293 3.02023 9.12892 2.97596 9.10907Z" fill="#FFE492"/>
</svg>
