<svg width="95" height="36" viewBox="0 0 95 36" fill="none" xmlns="http://www.w3.org/2000/svg">
<g clip-path="url(#clip0_44_154)">
<path d="M17.931 35.8621C27.8341 35.8621 35.8621 27.8341 35.8621 17.931C35.8621 8.028 27.8341 0 17.931 0C8.028 0 0 8.028 0 17.931C0 27.8341 8.028 35.8621 17.931 35.8621Z" fill="#FF0000"/>
<path d="M20.4178 17.9381L15.4443 20.8236V15.0385L20.4178 17.9381Z" fill="url(#paint0_linear_44_154)"/>
<path d="M35.52 21.4276C34.8283 24.8993 33.1253 28.0889 30.6253 30.5951C28.1254 33.1014 24.9401 34.8124 21.4701 35.5129L9.88574 23.9285C10.5105 24.4156 11.2807 24.6789 12.0729 24.6764H23.8082C24.7538 24.6739 25.6597 24.2964 26.3271 23.6267C26.9946 22.957 27.3691 22.0499 27.3685 21.1044V14.7577C27.3713 13.8286 27.0106 12.9353 26.3634 12.2686L35.52 21.4276Z" fill="url(#paint1_linear_44_154)"/>
<path d="M23.7987 11.1857H12.0633C11.5944 11.1857 11.13 11.2781 10.6967 11.4576C10.2635 11.6372 9.86986 11.9003 9.53836 12.232C9.20685 12.5638 8.94396 12.9576 8.7647 13.3909C8.58545 13.8243 8.49334 14.2887 8.49365 14.7577V21.1044C8.49334 21.5733 8.58545 22.0378 8.7647 22.4711C8.94396 22.9045 9.20685 23.2983 9.53836 23.63C9.86986 23.9618 10.2635 24.2249 10.6967 24.4045C11.13 24.584 11.5944 24.6764 12.0633 24.6764H23.7987C24.2677 24.6764 24.7321 24.584 25.1653 24.4045C25.5986 24.2249 25.9922 23.9618 26.3237 23.63C26.6552 23.2983 26.9181 22.9045 27.0974 22.4711C27.2766 22.0378 27.3687 21.5733 27.3684 21.1044V14.7577C27.3687 14.2887 27.2766 13.8243 27.0974 13.3909C26.9181 12.9576 26.6552 12.5638 26.3237 12.232C25.9922 11.9003 25.5986 11.6372 25.1653 11.4576C24.7321 11.2781 24.2677 11.1857 23.7987 11.1857ZM15.4443 20.8236V15.0385L20.4178 17.931L15.4443 20.8236Z" fill="white"/>
</g>
<g clip-path="url(#clip1_44_154)">
<path d="M65.2034 17.931C65.2034 27.8342 57.1755 35.8621 47.2723 35.8621C37.3692 35.8621 29.3413 27.8342 29.3413 17.931C29.3413 8.02787 37.3692 0 47.2723 0C57.1755 0 65.2034 8.02787 65.2034 17.931Z" fill="#4A7AFF"/>
<path d="M48.0592 35.8438C57.5971 35.432 65.2033 27.5702 65.2033 17.9311C65.2033 17.8613 65.2014 17.7918 65.2006 17.722L52.754 5.27515L39.4458 19.1853L46.84 26.5795L43.4306 31.2152L48.0592 35.8438Z" fill="#0053BF"/>
<path d="M52.7543 5.27514V9.33545C52.7543 9.33545 48.0926 8.65882 48.0926 11.6663V14.6738H52.3031L51.7769 19.2602H48.0926V31.2152H43.4309V19.2602L39.4458 19.185V14.6738H43.3556V11.2151C43.3556 11.2151 43.0976 6.06997 48.1678 5.12493C50.2732 4.73231 52.7543 5.27514 52.7543 5.27514Z" fill="white"/>
<path d="M52.7541 9.33545V5.27514C52.7541 5.27514 50.2731 4.73231 48.1677 5.12493C47.8388 5.18622 47.5329 5.26556 47.2476 5.35941V31.2152H48.0925V19.2602H51.7766L52.303 14.6738H48.0925C48.0925 14.6738 48.0925 14.6738 48.0925 11.6663C48.0925 8.65882 52.7541 9.33545 52.7541 9.33545Z" fill="#DCE1EB"/>
</g>
<g clip-path="url(#clip2_44_154)">
<path d="M76.6141 35.8621C66.7126 35.8621 58.6831 27.8326 58.6831 17.931C58.6831 8.02952 66.7126 0 76.6141 0C86.5157 0 94.5452 8.02952 94.5452 17.931C94.5452 27.8326 86.5157 35.8621 76.6141 35.8621Z" fill="url(#paint2_linear_44_154)"/>
<path d="M76.6139 7.8968C79.8809 7.8968 80.2683 7.90756 81.5593 7.96853C82.7535 8.02232 83.4026 8.22315 83.8329 8.3917C84.4032 8.61404 84.812 8.87942 85.2387 9.30618C85.6655 9.73294 85.9309 10.1418 86.1532 10.712C86.3218 11.1423 86.519 11.7914 86.5764 12.9856C86.6338 14.2767 86.6481 14.664 86.6481 17.931C86.6481 21.198 86.6374 21.5854 86.5764 22.8764C86.5226 24.0706 86.3218 24.7197 86.1532 25.15C85.9309 25.7202 85.6655 26.1291 85.2387 26.5558C84.812 26.9826 84.4032 27.248 83.8329 27.4703C83.4026 27.6389 82.7535 27.8361 81.5593 27.8935C80.2683 27.9509 79.8809 27.9652 76.6139 27.9652C73.3469 27.9652 72.9596 27.9545 71.6685 27.8935C70.4743 27.8397 69.8252 27.6389 69.3949 27.4703C68.8247 27.248 68.4158 26.9826 67.9891 26.5558C67.5623 26.1291 67.2969 25.7202 67.0746 25.15C66.9061 24.7197 66.7088 24.0706 66.6514 22.8764C66.5941 21.5854 66.5797 21.198 66.5797 17.931C66.5797 14.664 66.5905 14.2767 66.6514 12.9856C66.7052 11.7914 66.9061 11.1423 67.0746 10.712C67.2969 10.1418 67.5623 9.73294 67.9891 9.30618C68.4158 8.87942 68.8247 8.61404 69.3949 8.3917C69.8252 8.22315 70.4743 8.0259 71.6685 7.96853C72.9596 7.90756 73.3469 7.8968 76.6139 7.8968ZM76.6139 5.69128C73.2895 5.69128 72.8735 5.70563 71.5681 5.76659C70.2663 5.82756 69.3769 6.03197 68.5952 6.3368C67.7918 6.64522 67.1069 7.0648 66.4291 7.74618C65.7477 8.42756 65.3317 9.10894 65.0161 9.91584C64.7149 10.694 64.5069 11.5834 64.4459 12.8888C64.3849 14.1942 64.3706 14.6102 64.3706 17.9346C64.3706 21.259 64.3849 21.675 64.4459 22.9804C64.5069 24.2822 64.7113 25.1716 65.0161 25.9534C65.3281 26.7531 65.7477 27.438 66.4291 28.1158C67.1105 28.7972 67.7918 29.2132 68.5987 29.5288C69.3769 29.83 70.2663 30.038 71.5717 30.099C72.8771 30.16 73.2931 30.1743 76.6175 30.1743C79.9419 30.1743 80.3579 30.16 81.6633 30.099C82.9651 30.038 83.8545 29.8336 84.6363 29.5288C85.436 29.2168 86.1209 28.7972 86.7987 28.1158C87.4801 27.4345 87.8961 26.7531 88.2117 25.9462C88.5129 25.168 88.7209 24.2786 88.7819 22.9732C88.8429 21.6678 88.8572 21.2518 88.8572 17.9274C88.8572 14.603 88.8429 14.187 88.7819 12.8816C88.7209 11.5798 88.5165 10.6905 88.2117 9.90866C87.8997 9.10894 87.4801 8.42397 86.7987 7.74618C86.1174 7.0648 85.436 6.6488 84.6291 6.33322C83.8509 6.03197 82.9615 5.82397 81.6561 5.76301C80.3543 5.70563 79.9383 5.69128 76.6139 5.69128Z" fill="white"/>
<path d="M76.6138 11.6444C73.1423 11.6444 70.3271 14.4596 70.3271 17.931C70.3271 21.4025 73.1423 24.2176 76.6138 24.2176C80.0852 24.2176 82.9004 21.4025 82.9004 17.931C82.9004 14.4596 80.0852 11.6444 76.6138 11.6444ZM76.6138 22.0121C74.3616 22.0121 72.5327 20.1868 72.5327 17.931C72.5327 15.6753 74.3616 13.8499 76.6138 13.8499C78.8659 13.8499 80.6949 15.6753 80.6949 17.931C80.6949 20.1868 78.8659 22.0121 76.6138 22.0121Z" fill="white"/>
<path d="M83.1481 12.8673C83.9601 12.8673 84.6184 12.209 84.6184 11.3969C84.6184 10.5849 83.9601 9.92657 83.1481 9.92657C82.336 9.92657 81.6777 10.5849 81.6777 11.3969C81.6777 12.209 82.336 12.8673 83.1481 12.8673Z" fill="white"/>
</g>
<defs>
<linearGradient id="paint0_linear_44_154" x1="14.5171" y1="15.9657" x2="18.4525" y2="19.9035" gradientUnits="userSpaceOnUse">
<stop stop-color="#B71C1C"/>
<stop offset="1" stop-color="#B71C1C" stop-opacity="0"/>
</linearGradient>
<linearGradient id="paint1_linear_44_154" x1="16.9119" y1="16.8929" x2="30.6197" y2="30.5984" gradientUnits="userSpaceOnUse">
<stop stop-color="#B71C1C"/>
<stop offset="1" stop-color="#B71C1C" stop-opacity="0"/>
</linearGradient>
<linearGradient id="paint2_linear_44_154" x1="63.935" y1="30.6102" x2="89.2933" y2="5.25189" gradientUnits="userSpaceOnUse">
<stop stop-color="#FFD521"/>
<stop offset="0.0551048" stop-color="#FFD020"/>
<stop offset="0.1241" stop-color="#FEC01E"/>
<stop offset="0.2004" stop-color="#FCA71B"/>
<stop offset="0.2821" stop-color="#FA8316"/>
<stop offset="0.3681" stop-color="#F85510"/>
<stop offset="0.4563" stop-color="#F51E09"/>
<stop offset="0.5" stop-color="#F30005"/>
<stop offset="0.5035" stop-color="#F20007"/>
<stop offset="0.5966" stop-color="#E1003B"/>
<stop offset="0.6879" stop-color="#D30067"/>
<stop offset="0.7757" stop-color="#C70088"/>
<stop offset="0.8589" stop-color="#BF00A0"/>
<stop offset="0.9357" stop-color="#BB00AF"/>
<stop offset="1" stop-color="#B900B4"/>
</linearGradient>
<clipPath id="clip0_44_154">
<rect width="35.8621" height="35.8621" fill="white"/>
</clipPath>
<clipPath id="clip1_44_154">
<rect width="35.8621" height="35.8621" fill="white" transform="translate(29.3413)"/>
</clipPath>
<clipPath id="clip2_44_154">
<rect width="35.8621" height="35.8621" fill="white" transform="translate(58.6831)"/>
</clipPath>
</defs>
</svg>
