<svg width="20" height="20" viewBox="0 0 20 20" fill="none" xmlns="http://www.w3.org/2000/svg">
<g clip-path="url(#clip0_899_935)">
<path d="M3.20703 7.1826C3.0854 6.63471 3.10407 6.06497 3.26133 5.52622C3.41858 4.98746 3.70932 4.49714 4.10659 4.1007C4.50385 3.70427 4.99479 3.41455 5.53387 3.25843C6.07295 3.1023 6.64272 3.08482 7.19036 3.2076C7.49179 2.73619 7.90703 2.34823 8.39782 2.07951C8.88861 1.81078 9.43915 1.66992 9.9987 1.66992C10.5582 1.66992 11.1088 1.81078 11.5996 2.07951C12.0904 2.34823 12.5056 2.73619 12.807 3.2076C13.3555 3.08429 13.9263 3.10169 14.4662 3.2582C15.0061 3.4147 15.4977 3.70522 15.8952 4.10273C16.2927 4.50024 16.5833 4.99183 16.7398 5.53177C16.8963 6.07171 16.9137 6.64246 16.7904 7.19093C17.2618 7.49236 17.6497 7.9076 17.9185 8.39839C18.1872 8.88918 18.328 9.43972 18.328 9.99927C18.328 10.5588 18.1872 11.1094 17.9185 11.6001C17.6497 12.0909 17.2618 12.5062 16.7904 12.8076C16.9131 13.3552 16.8957 13.925 16.7395 14.4641C16.5834 15.0032 16.2937 15.4941 15.8973 15.8914C15.5008 16.2886 15.0105 16.5794 14.4717 16.7366C13.933 16.8939 13.3633 16.9126 12.8154 16.7909C12.5143 17.2642 12.0988 17.6538 11.6071 17.9237C11.1155 18.1936 10.5637 18.3351 10.0029 18.3351C9.44201 18.3351 8.89022 18.1936 8.39859 17.9237C7.90696 17.6538 7.49139 17.2642 7.19036 16.7909C6.64272 16.9137 6.07295 16.8962 5.53387 16.7401C4.99479 16.584 4.50385 16.2943 4.10659 15.8978C3.70932 15.5014 3.41858 15.0111 3.26133 14.4723C3.10407 13.9336 3.0854 13.3638 3.20703 12.8159C2.73199 12.5153 2.34071 12.0994 2.06957 11.6069C1.79843 11.1145 1.65625 10.5614 1.65625 9.99927C1.65625 9.43709 1.79843 8.88405 2.06957 8.39159C2.34071 7.89912 2.73199 7.48323 3.20703 7.1826Z" stroke="url(#paint0_linear_899_935)" stroke-width="1.66667" stroke-linecap="round" stroke-linejoin="round"/>
<path d="M7.5 10.0007L9.16667 11.6673L12.5 8.33398" stroke="url(#paint1_linear_899_935)" stroke-width="1.66667" stroke-linecap="round" stroke-linejoin="round"/>
</g>
<defs>
<linearGradient id="paint0_linear_899_935" x1="1.65625" y1="10.0025" x2="18.328" y2="10.0025" gradientUnits="userSpaceOnUse">
<stop stop-color="#FACC15"/>
<stop offset="1" stop-color="#F97316"/>
</linearGradient>
<linearGradient id="paint1_linear_899_935" x1="7.5" y1="10.0007" x2="12.5" y2="10.0007" gradientUnits="userSpaceOnUse">
<stop stop-color="#FACC15"/>
<stop offset="1" stop-color="#F97316"/>
</linearGradient>
<clipPath id="clip0_899_935">
<rect width="20" height="20" fill="white"/>
</clipPath>
</defs>
</svg>
