<svg width="17" height="16" viewBox="0 0 17 16" fill="none" xmlns="http://www.w3.org/2000/svg">
<path fill-rule="evenodd" clip-rule="evenodd" d="M8.5 1C6.64348 1 4.86301 1.7375 3.55025 3.05025C2.2375 4.36301 1.5 6.14348 1.5 8C1.5 9.85652 2.2375 11.637 3.55025 12.9497C4.86301 14.2625 6.64348 15 8.5 15C10.3565 15 12.137 14.2625 13.4497 12.9497C14.7625 11.637 15.5 9.85652 15.5 8C15.5 6.14348 14.7625 4.36301 13.4497 3.05025C12.137 1.7375 10.3565 1 8.5 1ZM9 7.793V4H8V8.207L11.146 11.354L11.854 10.646L9 7.793Z" fill="#ACACAC"/>
</svg>
