<svg width="60" height="60" viewBox="0 0 60 60" fill="none" xmlns="http://www.w3.org/2000/svg">
<g clip-path="url(#clip0_168_1710)">
<path d="M30 60C46.5685 60 60 46.5685 60 30C60 13.4315 46.5685 0 30 0C13.4315 0 0 13.4315 0 30C0 46.5685 13.4315 60 30 60Z" fill="#0162D9"/>
<path d="M25.0835 23.1706L25.0836 36.9101H34.8962C34.8967 36.9101 34.8971 23.1706 34.8971 23.1706H40.9198L30.3262 8.80731C30.3258 8.80667 19.0811 23.1706 19.0811 23.1706H25.0835Z" fill="white"/>
<path d="M23.3594 42.0001H36.6413V46.1027H23.3594V42.0001Z" fill="white"/>
<path d="M25.0938 49.1414H34.9072V53.244H25.0938V49.1414Z" fill="white"/>
</g>
<defs>
<clipPath id="clip0_168_1710">
<rect width="60" height="60" fill="white"/>
</clipPath>
</defs>
</svg>
