<svg width="44" height="44" viewBox="0 0 44 44" fill="none" xmlns="http://www.w3.org/2000/svg">
<path d="M21.707 43.4139C33.6954 43.4139 43.4139 33.6954 43.4139 21.707C43.4139 9.71854 33.6954 0 21.707 0C9.71854 0 0 9.71854 0 21.707C0 33.6954 9.71854 43.4139 21.707 43.4139Z" fill="#FF0000"/>
<path d="M24.7171 21.7163L18.6963 25.2094V18.2061L24.7171 21.7163Z" fill="url(#paint0_linear_44_562)"/>
<path d="M42.9997 25.9402C42.1622 30.143 40.1006 34.0042 37.0742 37.0383C34.0478 40.0723 30.1918 42.1436 25.9911 42.9916L11.9673 28.9678C12.7236 29.5574 13.6559 29.8762 14.615 29.8732H28.8216C29.9662 29.8702 31.0629 29.4131 31.8709 28.6024C32.6789 27.7917 33.1323 26.6936 33.1316 25.5489V17.8658C33.135 16.741 32.6983 15.6596 31.9148 14.8525L42.9997 25.9402Z" fill="url(#paint1_linear_44_562)"/>
<path d="M28.8103 13.541H14.6036C14.0359 13.541 13.4737 13.6529 12.9492 13.8702C12.4248 14.0876 11.9482 14.4062 11.5469 14.8077C11.1456 15.2093 10.8274 15.686 10.6104 16.2107C10.3934 16.7353 10.2819 17.2975 10.2822 17.8653V25.5484C10.2819 26.1161 10.3934 26.6784 10.6104 27.203C10.8274 27.7276 11.1456 28.2044 11.5469 28.6059C11.9482 29.0075 12.4248 29.3261 12.9492 29.5434C13.4737 29.7608 14.0359 29.8727 14.6036 29.8727H28.8103C29.378 29.8727 29.9402 29.7608 30.4647 29.5434C30.9891 29.3261 31.4657 29.0075 31.867 28.6059C32.2683 28.2044 32.5865 27.7276 32.8035 27.203C33.0205 26.6784 33.132 26.1161 33.1317 25.5484V17.8653C33.132 17.2975 33.0205 16.7353 32.8035 16.2107C32.5865 15.686 32.2683 15.2093 31.867 14.8077C31.4657 14.4062 30.9891 14.0876 30.4647 13.8702C29.9402 13.6529 29.378 13.541 28.8103 13.541ZM18.6965 25.2085V18.2052L24.7174 21.7068L18.6965 25.2085Z" fill="white"/>
<defs>
<linearGradient id="paint0_linear_44_562" x1="17.5738" y1="19.3285" x2="22.3379" y2="24.0955" gradientUnits="userSpaceOnUse">
<stop stop-color="#B71C1C"/>
<stop offset="1" stop-color="#B71C1C" stop-opacity="0"/>
</linearGradient>
<linearGradient id="paint1_linear_44_562" x1="20.473" y1="20.4507" x2="37.0674" y2="37.0422" gradientUnits="userSpaceOnUse">
<stop stop-color="#B71C1C"/>
<stop offset="1" stop-color="#B71C1C" stop-opacity="0"/>
</linearGradient>
</defs>
</svg>
